<svg xmlns="http://www.w3.org/2000/svg" width="199.821" height="64"><path data-name="Path 5" d="M199.821 57.585a6.812 6.812 0 01-1.686 4.539 5.462 5.462 0 01-4.068 1.877H5.762c-3.178 0-5.757-2.868-5.762-6.415V6.424C0 2.876 2.582.001 5.762 0h188.3c3.178 0 5.755 2.876 5.754 6.424v51.161z" fill="#fff"/><g data-name="Group 8"><path data-name="Path 8" d="M43.88 30.356a8.7 8.7 0 014.144-7.3 8.912 8.912 0 00-7.018-3.793c-2.952-.311-5.816 1.766-7.319 1.766-1.534 0-3.85-1.736-6.345-1.685a9.344 9.344 0 00-7.864 4.8c-3.4 5.886-.864 14.536 2.394 19.294 1.63 2.332 3.534 4.932 6.027 4.84 2.439-.1 3.35-1.553 6.293-1.553 2.916 0 3.772 1.553 6.314 1.494 2.617-.041 4.265-2.341 5.838-4.692a19.231 19.231 0 002.67-5.436 8.415 8.415 0 01-5.133-7.733zm-4.8-14.221A8.559 8.559 0 0041.04 10a8.724 8.724 0 00-5.64 2.917 8.146 8.146 0 00-2.013 5.908 7.206 7.206 0 005.691-2.69z" fill="#3c404d"/><g data-name="Group 3"><path data-name="Path 10" d="M79.204 47.941h-3.408l-1.865-5.865h-6.49l-1.778 5.865h-3.318l6.431-19.967h3.971zm-5.838-8.326l-1.688-5.214q-.268-.8-1.007-3.762h-.06q-.3 1.274-.949 3.762l-1.66 5.214zm22.344.95a8.152 8.152 0 01-2 5.805 5.853 5.853 0 01-4.439 1.9 4.444 4.444 0 01-4.112-2.042v7.555h-3.2v-15.5q0-2.307-.119-4.732h2.814l.179 2.282h.06a5.693 5.693 0 019.111-.566 7.96 7.96 0 011.706 5.295zm-3.26.117a5.934 5.934 0 00-.949-3.467 3.278 3.278 0 00-2.785-1.421 3.328 3.328 0 00-2.148.785 3.639 3.639 0 00-1.259 2.06 4.176 4.176 0 00-.149.974v2.4a3.851 3.851 0 00.965 2.649 3.2 3.2 0 002.5 1.082 3.28 3.28 0 002.814-1.392 6.127 6.127 0 001.011-3.67zm19.824-.117a8.152 8.152 0 01-2 5.805 5.856 5.856 0 01-4.441 1.9 4.444 4.444 0 01-4.112-2.042v7.555h-3.2v-15.5q0-2.307-.119-4.732h2.814l.179 2.282h.06a5.695 5.695 0 019.113-.566 7.968 7.968 0 011.7 5.305zm-3.261.117a5.935 5.935 0 00-.95-3.467 3.273 3.273 0 00-2.782-1.421 3.342 3.342 0 00-2.151.785 3.637 3.637 0 00-1.258 2.06 4.274 4.274 0 00-.15.974v2.4a3.864 3.864 0 00.962 2.649 3.206 3.206 0 002.506 1.082 3.276 3.276 0 002.814-1.392 6.127 6.127 0 001.009-3.67zm21.781 1.658a5.333 5.333 0 01-1.775 4.149 7.871 7.871 0 01-5.44 1.748 9.5 9.5 0 01-5.172-1.244l.74-2.666a8.9 8.9 0 004.622 1.245 4.362 4.362 0 002.814-.815 2.661 2.661 0 001.01-2.176 2.788 2.788 0 00-.831-2.045 7.709 7.709 0 00-2.755-1.539q-5.245-1.956-5.247-5.72a5.049 5.049 0 011.852-4.029 7.324 7.324 0 014.9-1.571 9.694 9.694 0 014.534.948l-.8 2.608a7.929 7.929 0 00-3.838-.918 3.9 3.9 0 00-2.647.83 2.374 2.374 0 00-.8 1.81 2.445 2.445 0 00.92 1.955 10.365 10.365 0 002.9 1.539 9.84 9.84 0 013.793 2.428 5.059 5.059 0 011.22 3.463zm10.606-6.4h-3.527v6.99q0 2.667 1.867 2.665a5.622 5.622 0 001.421-.149l.089 2.429a7.251 7.251 0 01-2.488.354 3.836 3.836 0 01-2.964-1.157 5.672 5.672 0 01-1.067-3.882v-7.252h-2.1v-2.4h2.1v-2.637l3.143-.948v3.584h3.527zm15.882 4.68a7.9 7.9 0 01-1.9 5.451 6.763 6.763 0 01-5.274 2.192 6.447 6.447 0 01-5.053-2.1 7.657 7.657 0 01-1.882-5.3 7.833 7.833 0 011.941-5.479 6.728 6.728 0 015.232-2.134 6.582 6.582 0 015.1 2.1 7.557 7.557 0 011.839 5.269zm-3.317.074a6.446 6.446 0 00-.857-3.4 3.167 3.167 0 00-2.876-1.715 3.213 3.213 0 00-2.934 1.715 6.552 6.552 0 00-.858 3.457 6.427 6.427 0 00.858 3.4 3.282 3.282 0 005.783-.029 6.471 6.471 0 00.884-3.43zm13.722-4.341a5.569 5.569 0 00-1.009-.089 3.02 3.02 0 00-2.608 1.275 4.8 4.8 0 00-.8 2.843v7.555h-3.2v-9.86q0-2.267-.093-4.533h2.787l.117 2.755h.089a4.939 4.939 0 011.6-2.282 3.87 3.87 0 012.313-.771 5.139 5.139 0 01.8.059v3.052zm14.31 3.7a7.5 7.5 0 01-.117 1.451h-9.6a4.175 4.175 0 001.393 3.262 4.763 4.763 0 003.14 1.005 10.619 10.619 0 003.884-.68l.5 2.219a12.011 12.011 0 01-4.828.89 7 7 0 01-5.262-1.969 7.277 7.277 0 01-1.911-5.287 8.246 8.246 0 011.78-5.419 6.133 6.133 0 015.035-2.309 5.367 5.367 0 014.72 2.316 7.769 7.769 0 011.267 4.53zm-3.051-.83a4.33 4.33 0 00-.621-2.459 2.794 2.794 0 00-2.548-1.335 3.034 3.034 0 00-2.547 1.3 4.778 4.778 0 00-.947 2.488z" fill="#707070"/></g><g data-name="Group 4"><path data-name="Path 11" d="M66.517 20.914a20.437 20.437 0 01-2.3-.117v-9.654a17.423 17.423 0 012.709-.2c3.669 0 5.359 1.8 5.359 4.747 0 3.395-1.996 5.224-5.768 5.224zm.537-8.737a6.421 6.421 0 00-1.267.1v7.339a8.306 8.306 0 001.063.044c2.4 0 3.773-1.368 3.773-3.931a3.2 3.2 0 00-3.569-3.552zm10.5 8.81a3.368 3.368 0 01-3.408-3.64 3.447 3.447 0 013.525-3.742 3.342 3.342 0 013.408 3.626 3.467 3.467 0 01-3.525 3.756zm.06-6.233c-1.136 0-1.864 1.062-1.864 2.548 0 1.457.743 2.519 1.849 2.519s1.849-1.136 1.849-2.549c-.003-1.44-.731-2.517-1.838-2.517zm15.259-1l-2.214 7.076H89.21l-.917-3.073a23.284 23.284 0 01-.569-2.285h-.03a15.314 15.314 0 01-.567 2.285l-.975 3.073h-1.457l-2.085-7.079h1.616l.8 3.364q.284 1.2.48 2.272h.03c.116-.6.3-1.34.582-2.257l1.006-3.377h1.286l.962 3.305c.233.8.422 1.587.569 2.33h.042a20.362 20.362 0 01.48-2.33l.86-3.305h1.544zm8.149 7.076h-1.573v-4.066c0-1.251-.48-1.879-1.427-1.879a1.633 1.633 0 00-1.573 1.733v4.209h-1.573v-5.053c0-.626-.015-1.3-.059-2.024h1.384l.074 1.092h.044a2.543 2.543 0 012.244-1.236c1.486 0 2.461 1.136 2.461 2.984v4.237zm4.337 0h-1.574V10.504h1.574zm5.735.161a3.369 3.369 0 01-3.408-3.64 3.446 3.446 0 013.524-3.742 3.341 3.341 0 013.408 3.626 3.466 3.466 0 01-3.524 3.756zm.059-6.233c-1.136 0-1.864 1.062-1.864 2.548 0 1.457.744 2.519 1.848 2.519s1.849-1.136 1.849-2.549c-.002-1.444-.729-2.521-1.836-2.521zm9.667 6.072l-.114-.815h-.042a2.417 2.417 0 01-2.07.975 2.058 2.058 0 01-2.169-2.083c0-1.746 1.514-2.65 4.136-2.65v-.132c0-.932-.494-1.4-1.469-1.4a3.313 3.313 0 00-1.849.525l-.32-1.034a4.525 4.525 0 012.43-.612c1.849 0 2.782.975 2.782 2.927v2.606a10.683 10.683 0 00.1 1.689h-1.418zm-.216-3.524c-1.747 0-2.623.423-2.623 1.427a1 1 0 001.079 1.106 1.506 1.506 0 001.544-1.44zm9.17 3.524l-.074-1.136h-.044a2.373 2.373 0 01-2.272 1.3c-1.706 0-2.97-1.5-2.97-3.611 0-2.213 1.31-3.772 3.1-3.772a2.127 2.127 0 012 .962h.032v-4.069h1.564v8.416c0 .684.017 1.325.059 1.907h-1.4zm-.233-4.164a1.712 1.712 0 00-1.657-1.835c-1.166 0-1.879 1.034-1.879 2.489 0 1.427.74 2.4 1.848 2.4a1.766 1.766 0 001.688-1.879v-1.178zm11.553 4.319a3.368 3.368 0 01-3.407-3.64 3.446 3.446 0 013.524-3.742 3.341 3.341 0 013.408 3.626 3.466 3.466 0 01-3.525 3.756zm.059-6.233c-1.135 0-1.863 1.062-1.863 2.548 0 1.457.743 2.519 1.848 2.519s1.849-1.136 1.849-2.549c.002-1.438-.726-2.515-1.835-2.515zm11.925 6.072h-1.574v-4.06c0-1.251-.48-1.879-1.427-1.879a1.632 1.632 0 00-1.571 1.733v4.209h-1.574v-5.053c0-.626-.015-1.3-.059-2.024h1.384l.074 1.092h.044a2.541 2.541 0 012.242-1.238c1.486 0 2.463 1.136 2.463 2.984zm10.582-5.9h-1.73v3.436c0 .875.3 1.311.915 1.311a3.1 3.1 0 00.7-.074l.044 1.194a3.485 3.485 0 01-1.22.176c-1.24 0-1.981-.684-1.981-2.476V14.93h-1.033v-1.179h1.033v-1.3l1.544-.467v1.761h1.73zm8.326 5.9h-1.571v-4.03c0-1.266-.479-1.907-1.427-1.907a1.542 1.542 0 00-1.578 1.674v4.266h-1.571V10.504h1.571v4.251h.031a2.386 2.386 0 012.128-1.151c1.5 0 2.413 1.164 2.413 3.014v4.209zm8.531-3.16h-4.72a2.031 2.031 0 002.23 2.1 5.317 5.317 0 001.908-.335l.245 1.092a5.909 5.909 0 01-2.374.437 3.285 3.285 0 01-3.524-3.566c0-2.17 1.342-3.8 3.347-3.8 1.809 0 2.943 1.34 2.943 3.364a3.03 3.03 0 01-.054.713zm-1.442-1.121c0-1.092-.551-1.864-1.556-1.864a1.865 1.865 0 00-1.72 1.864h3.276z" fill="#707070"/></g></g></svg>