<svg xmlns="http://www.w3.org/2000/svg" width="199.821" height="64"><path data-name="Path 23" d="M199.821 57.585a6.812 6.812 0 01-1.686 4.539 5.462 5.462 0 01-4.068 1.877H5.762c-3.178 0-5.757-2.868-5.762-6.415V6.424C0 2.876 2.582.001 5.762 0h188.3c3.178 0 5.755 2.876 5.754 6.424v51.161z" fill="#4223e6"/><g data-name="Group 10"><path data-name="Path 14" d="M105.571 21.7a4.565 4.565 0 01-3.408-1.41 4.8 4.8 0 01-1.377-3.441 4.7 4.7 0 011.377-3.438 4.551 4.551 0 013.4-1.41 4.612 4.612 0 013.408 1.41 4.98 4.98 0 010 6.875 4.526 4.526 0 01-3.4 1.414zm-40.4 0a4.734 4.734 0 01-3.423-1.392 4.848 4.848 0 013.423-8.3 4.769 4.769 0 011.911.4 3.866 3.866 0 011.455 1.04l.09.108-1.014.995-.1-.123a2.881 2.881 0 00-2.353-1.014 3.252 3.252 0 00-2.345.958 3.636 3.636 0 000 4.983 3.429 3.429 0 004.754 0 2.592 2.592 0 00.688-1.56h-3.251v-1.4h4.646l.019.127a5.129 5.129 0 01.067.7 4.212 4.212 0 01-1.16 3.1 4.526 4.526 0 01-3.41 1.378zm53.719-.2h-1.433l-4.388-7.021.037 1.264V21.5h-1.433v-9.3h1.635l.045.071 4.126 6.613-.037-1.261V12.2h1.448zm-24.083 0h-1.451v-7.9h-2.521v-1.4h6.482v1.4H94.8v7.9zm-5.151 0h-1.448v-9.3h1.448zm-8.136 0h-1.448v-7.9h-2.518v-1.4h6.481v1.4h-2.517zm-4.882-.015h-5.551V12.2h5.551v1.4h-4.1v2.551h3.7v1.384h-3.7v2.551h4.1zm26.588-2.158a3.2 3.2 0 002.345.973 3.122 3.122 0 002.345-.973 3.685 3.685 0 000-4.953 3.209 3.209 0 00-2.345-.973 3.108 3.108 0 00-2.342.973 3.692 3.692 0 00-.008 4.953z" fill="#fff"/><path data-name="Path 15" d="M100.651 34.486a6.382 6.382 0 106.4 6.382 6.282 6.282 0 00-6.4-6.382zm0 10.234a3.878 3.878 0 113.6-3.868 3.693 3.693 0 01-3.6 3.868zM86.687 34.486a6.382 6.382 0 106.4 6.382 6.282 6.282 0 00-6.399-6.382zm0 10.234a3.878 3.878 0 113.6-3.868 3.693 3.693 0 01-3.599 3.868zm-16.616-8.286v2.7h6.482a5.693 5.693 0 01-1.466 3.4 6.615 6.615 0 01-5 1.983 7.2 7.2 0 010-14.4 6.92 6.92 0 014.882 1.934l1.915-1.915a9.419 9.419 0 00-6.782-2.734 9.9 9.9 0 100 19.8 9.064 9.064 0 006.917-2.783 8.961 8.961 0 002.349-6.333 8.344 8.344 0 00-.15-1.683h-9.149l.003.032zm67.964 2.1a5.93 5.93 0 00-5.465-4.066 6.063 6.063 0 00-6.015 6.382 6.237 6.237 0 006.333 6.381 6.334 6.334 0 005.315-2.832l-2.166-1.451a3.629 3.629 0 01-3.135 1.766 3.26 3.26 0 01-3.1-1.934l8.533-3.535-.299-.708zm-8.7 2.132a3.5 3.5 0 013.333-3.718 2.46 2.46 0 012.368 1.35zm-6.931 6.183h2.8V28.101h-2.8zm-4.6-10.949h-.1a4.42 4.42 0 00-3.366-1.433 6.381 6.381 0 000 12.752 4.408 4.408 0 003.366-1.451h.1v.917c0 2.435-1.3 3.748-3.4 3.748a3.537 3.537 0 01-3.217-2.267l-2.435 1.017a6.091 6.091 0 005.648 3.767c3.284 0 6.067-1.934 6.067-6.651v-11.45h-2.648v1.052zm-3.217 8.817a3.88 3.88 0 010-7.732 3.587 3.587 0 013.4 3.883 3.543 3.543 0 01-3.401 3.852zm36.564-16.616h-6.7v18.748h2.8v-7.1h3.9a5.833 5.833 0 100-11.648zm.082 9.03h-3.982v-6.43h3.984a3.218 3.218 0 110 6.434zm17.3-2.682a5.276 5.276 0 00-5 2.865l2.484 1.032a2.664 2.664 0 012.551-1.384 2.706 2.706 0 012.951 2.416v.2a6.275 6.275 0 00-2.917-.718c-2.682 0-5.4 1.466-5.4 4.216 0 2.517 2.2 4.133 4.65 4.133a3.944 3.944 0 003.565-1.833h.1v1.451h2.7v-7.182c.002-3.344-2.481-5.193-5.68-5.193zm-.352 10.268c-.917 0-2.2-.449-2.2-1.6 0-1.451 1.6-2 2.966-2a4.863 4.863 0 012.551.632 3.373 3.373 0 01-3.312 2.971zm15.886-9.868l-3.217 8.132h-.1l-3.333-8.132h-3.015l5 11.368-2.85 6.318h2.918l7.694-17.686zm-25.219 12h2.8V28.101h-2.8z" fill="#fff" fill-rule="evenodd"/><g data-name="Group 9" fill-rule="evenodd"><path data-name="Path 16" d="M14.105 13.151a3.038 3.038 0 00-.685 2.117v33.168a2.892 2.892 0 00.7 2.1l.116.1L32.82 32.051v-.415l-18.6-18.585z" fill="#00d9ff"/><path data-name="Path 17" d="M39.004 38.268l-6.2-6.2v-.431l6.2-6.2.135.082 7.332 4.167c2.1 1.182 2.1 3.135 0 4.332l-7.332 4.167z" fill="#ffc801"/><path data-name="Path 18" d="M39.137 38.185l-6.332-6.333-18.7 18.7c.685.733 1.833.815 3.116.1l21.916-12.468" fill="#f93647"/><path data-name="Path 19" d="M39.137 25.519L17.22 13.07c-1.283-.733-2.435-.632-3.116.1l18.7 18.681z" fill="#00ef77"/></g></g><path data-name="Path 20" d="M39.003 35.198L17.236 47.565a2.47 2.47 0 01-3 .015l-.116.116.116.1a2.475 2.475 0 003-.015l21.916-12.449z" fill="#3c404d" fill-rule="evenodd" opacity=".2"/><path data-name="Path 21" d="M46.469 30.949L38.984 35.2l.135.135 7.332-4.167a2.628 2.628 0 001.567-2.166 2.7 2.7 0 01-1.549 1.947z" fill="#3c404d" fill-rule="evenodd" opacity=".12"/><path data-name="Path 22" d="M17.22 10.435l29.248 16.616A2.756 2.756 0 0148.035 29a2.627 2.627 0 00-1.567-2.166L17.22 10.218c-2.1-1.2-3.8-.2-3.8 2.2v.217c0-2.402 1.7-3.385 3.8-2.2z" fill="#fff" fill-rule="evenodd" opacity=".25"/></svg>