<svg xmlns="http://www.w3.org/2000/svg" width="464.823" height="308.592"><g data-name="Group 79"><g data-name="Group 78"><path data-name="Path 71" d="M204.16 76.607c-15.115-49.744-83.228-65.768-122.262-28.592q-.841.8-1.681 1.629c-55.962 55.192-29.525 191.192 87.266 225.662s238.271-28.476 245.1-84.746-47.062-73.951-130.678-58.217c-47.245 8.893-68.336-24.769-77.745-55.736z" fill="#fff" opacity=".2"/><path data-name="Path 72" d="M315.668 73.727l1.764-8.991-8.423-1.653a20.539 20.539 0 00-1.115-6.58l6.94-4.663-5.109-7.6-6.642 4.463a20.518 20.518 0 00-6.82-4.588l1.655-8.425-8.99-1.763-1.7 8.682a20.419 20.419 0 00-5.47 1.065l-4.663-6.942-7.6 5.11 4.463 6.642a20.511 20.511 0 00-4.587 6.819l-7.364-1.446-1.765 8.99 7.623 1.5a20.409 20.409 0 001.619 6.937l-6.645 4.463 5.11 7.6 6.941-4.663a20.515 20.515 0 006.7 3.891l-1.665 8.475 8.991 1.763 1.8-9.187a20.37 20.37 0 005.819-1.535l4.463 6.644 7.6-5.109-4.662-6.94a20.492 20.492 0 003.054-4.662zm-22.578-3.6a8.4 8.4 0 112.287-11.653 8.406 8.406 0 01-2.287 11.652z" fill="#e9dcf6" opacity=".3"/><path data-name="Path 73" d="M250.533 42.917l.943-4.81-4.506-.884a11.013 11.013 0 00-.6-3.521l3.713-2.495-2.734-4.069-3.554 2.388a10.978 10.978 0 00-3.648-2.455l.885-4.507-4.81-.944-.912 4.646a10.964 10.964 0 00-2.927.569l-2.494-3.714-4.069 2.734 2.387 3.554a10.984 10.984 0 00-2.454 3.649l-3.94-.774-.944 4.81 4.078.8a10.959 10.959 0 00.866 3.712l-3.555 2.388 2.734 4.068 3.714-2.494a11.005 11.005 0 003.583 2.082l-.891 4.534 4.811.944.965-4.916a10.937 10.937 0 003.114-.821l2.387 3.555 4.069-2.734-2.495-3.713a10.93 10.93 0 001.634-2.5zm-12.081-1.927a4.493 4.493 0 111.224-6.234 4.5 4.5 0 01-1.224 6.234z" fill="#e9dcf6" opacity=".6"/><path data-name="Path 74" d="M39.274 129.815l1.249-6.369-5.967-1.171a14.578 14.578 0 00-.79-4.662l4.917-3.3-3.62-5.388-4.706 3.162a14.528 14.528 0 00-4.831-3.25l1.173-5.969-6.37-1.249-1.207 6.151a14.466 14.466 0 00-3.875.755l-3.3-4.919-5.388 3.62 3.162 4.706a14.528 14.528 0 00-3.25 4.831l-5.22-1.027-1.246 6.369 5.4 1.06a14.471 14.471 0 001.147 4.914l-4.712 3.157 3.62 5.387 4.918-3.3a14.528 14.528 0 004.744 2.757l-1.179 6 6.369 1.25 1.278-6.509a14.45 14.45 0 004.123-1.088l3.162 4.707 5.387-3.62-3.3-4.916a14.518 14.518 0 002.164-3.3zm-16-2.551a5.949 5.949 0 111.62-8.255 5.955 5.955 0 01-1.616 8.255z" fill="#e9dcf6" opacity=".3"/><path data-name="Path 75" d="M463.574 225.147l1.249-6.369-5.967-1.171a14.555 14.555 0 00-.79-4.662l4.917-3.3-3.62-5.388-4.7 3.162a14.537 14.537 0 00-4.832-3.25l1.173-5.969-6.37-1.249-1.207 6.151a14.466 14.466 0 00-3.875.755l-3.3-4.918-5.388 3.619 3.162 4.706a14.523 14.523 0 00-3.25 4.832l-5.217-1.025-1.254 6.365 5.4 1.06a14.471 14.471 0 001.147 4.914l-4.708 3.162 3.62 5.387 4.918-3.3a14.528 14.528 0 004.744 2.757l-1.179 6 6.37 1.25 1.277-6.509a14.442 14.442 0 004.123-1.088l3.162 4.707 5.387-3.62-3.3-4.916a14.517 14.517 0 002.164-3.3zm-16-2.551a5.949 5.949 0 111.62-8.255 5.955 5.955 0 01-1.616 8.255z" fill="#e9dcf6" opacity=".2"/></g></g><g data-name="Group 88"><g data-name="Group 85"><path data-name="Path 90" d="M153.125 147.861v-21.574l-7.341-6.815-37.421 6.815v21.574H89.205l53.23-80.046L135.094 61H86.305l-59.884 86.7v30.245l7.341 6.815h65.727l.124 17.38 7.341 6.815h46.171v-24.2h18.751v-36.9l-7.341-6.815z" fill="#8b5cf9"/><path data-name="Path 91" d="M164.536 177.945h-18.751v24.2H99.612v-24.2H26.42V147.7L86.304 61h48.794l-53.23 80.046h19.155v-21.574h44.762v21.574h18.751z" fill="#fff"/></g><g data-name="Group 86"><path data-name="Path 92" d="M242.442 64.589c-37.3 0-63.917 27.018-63.917 73.8s26.616 73.8 63.917 73.8 63.916-27.02 63.916-73.8-26.615-73.8-63.916-73.8zm0 109.484c-9.275 0-16.131-8.468-16.131-35.688s6.856-35.689 16.131-35.689 16.13 8.469 16.13 35.689-6.855 35.688-16.13 35.688z" fill="#8b5cf9"/><path data-name="Path 93" d="M171.184 131.571c0-46.779 26.616-73.8 63.917-73.8s63.916 27.018 63.916 73.8-26.615 73.8-63.916 73.8-63.917-27.023-63.917-73.8zm80.047 0c0-27.22-6.855-35.689-16.13-35.689s-16.131 8.469-16.131 35.689 6.856 35.687 16.131 35.687 16.13-8.468 16.13-35.687z" fill="#fff"/></g><g data-name="Group 87"><path data-name="Path 94" d="M435.996 147.861v-21.574l-7.341-6.815-37.421 6.815v21.574H372.08l53.23-80.046L417.969 61h-48.794l-59.884 86.7v30.245l7.341 6.815h65.727l.124 17.38 7.341 6.815h46.173v-24.2h18.751v-36.9l-7.343-6.809z" fill="#8b5cf9"/><path data-name="Path 95" d="M447.405 177.945h-18.749v24.2h-46.173v-24.2h-73.192V147.7L369.175 61h48.794l-53.23 80.046h19.155v-21.574h44.762v21.574h18.749z" fill="#fff"/></g></g><g data-name="Group 141"><g data-name="Group 139"><g data-name="Group 103"><path data-name="Path 104" d="M176.555 225.393a29.985 29.985 0 00-1.2-9.154c-1.37-3.931-3.133-12.926-7.412-12.321-1.563.221 1.047 3.823.287 7.424a57.842 57.842 0 01-8.068-3.946c-2.881-1.818-8.771-4.669-11.508-5.969a.819.819 0 00-1.036 1.192c.766 1.1 2.548 2.694 6.534 4.8 0 0-9.852-4.59-11.329-3.278s10.947 6.825 10.947 6.825-9.924-3.157-10.588-1.643c-.4.922 9.474 5.778 9.474 5.778s-9.59-2.165-7.669-.076c.56.609 18.473 7.37 22.967 16.582.004-.003 7.585-2.855 8.601-6.214z" fill="#fda380"/><path data-name="Path 105" d="M204.814 288.871c-15.447 0-34.073-52.891-40.27-60.268l12.059-6.219s15.026 23.984 27.636 32.49c.134.091.269.178.4.266l.94-2.041 17.59-38.193s5.753-8.219 14.519-3.145c21.288 12.322-11.506 77.11-32.874 77.11z" fill="#705cf9"/><g data-name="Group 102"><path data-name="Path 106" d="M207.28 268.325a.822.822 0 01-1.644 0 80.591 80.591 0 00-1.4-13.451c.134.091.269.178.4.266l.94-2.041a86.343 86.343 0 011.704 15.226z" fill="#620ecc"/></g></g><g data-name="Group 106"><path data-name="Path 107" d="M348.636 174.909a29.962 29.962 0 01-3.961-8.339c-.981-4.045-4.38-12.558-.456-14.371 1.433-.662 1.194 3.779 3.786 6.393a57.856 57.856 0 004.637-7.692c1.435-3.09 4.836-8.68 6.431-11.257a.819.819 0 011.517.439c-.047 1.341-.679 3.646-2.888 7.575 0 0 5.787-9.2 7.739-8.9s-5.494 11.671-5.494 11.671 6.625-8.035 8-7.123c.839.555-4.825 9.993-4.825 9.993s6.882-7.021 6.4-4.224c-.14.815-11.522 16.212-10.3 26.388.005.001-7.91 1.718-10.586-.553z" fill="#fda380"/><g data-name="Group 104"><path data-name="Path 108" d="M359.868 173.536c-.841 9.6 1.252 70.434-12.328 77.8-10.032 5.444-43.579-6.558-62.816-24.455a43 43 0 016.109-29.512l42.336 25.417.986.591c.17-.421.34-.865.512-1.325 5.512-14.843 12.325-48.516 12.325-48.516 4.551.717 9.598 1 12.876 0z" fill="#b18fff"/></g><g data-name="Group 105"><path data-name="Path 109" d="M340.193 233.276a.821.821 0 01-1.162.033c-2.63-2.49-4.564-6.764-5.862-10.519l.986.591c.17-.421.34-.865.512-1.325 1.236 3.624 3.06 7.755 5.493 10.059a.82.82 0 01.033 1.161z" fill="#705cf9"/></g></g><g data-name="Group 111"><path data-name="Path 110" d="M223.717 293.528c6.026-23.012-1.1-56.189-1.1-69.034a37.171 37.171 0 0118.628-32.874l18.354-4.657s33.148 5.753 42.736 19.724c3.238 4.715 5.942 19.85 8.15 37.325q.132 1.044.263 2.1c1.986 16.182 3.558 34.068 4.736 47.42z" fill="#b18fff"/><g data-name="Group 107"><path data-name="Path 111" d="M253.85 210.797a.822.822 0 01-.145-1.631c10.027-1.8 13.019-12.714 13.048-12.824a.822.822 0 011.59.417c-.128.491-3.274 12.037-14.347 14.024a.81.81 0 01-.146.014z" fill="#705cf9"/></g><g data-name="Group 108"><path data-name="Path 112" d="M276.628 281.47c-11.352 0-22.069-5.933-29.39-11.247a94.546 94.546 0 01-14.833-13.419.822.822 0 111.253-1.065 92.744 92.744 0 0014.576 13.175c7.963 5.774 20.039 12.31 32.355 10.65a.822.822 0 11.219 1.629 31.192 31.192 0 01-4.18.277z" fill="#705cf9"/></g><g data-name="Group 109"><path data-name="Path 113" d="M268.559 288.055c-14.606 0-25.209-9.129-25.66-9.523a.822.822 0 011.083-1.238c.106.093 10.607 9.117 24.594 9.117.2 0 .4 0 .6-.005h.016a.822.822 0 01.015 1.644c-.216.003-.433.005-.648.005z" fill="#705cf9"/></g><g data-name="Group 110"><path data-name="Path 114" d="M310.752 246.108a259.632 259.632 0 01-21.508-14.64.823.823 0 011-1.307c.143.11 9.78 7.46 20.245 13.851l.263 2.096z" fill="#705cf9"/></g></g><g data-name="Group 138" transform="translate(-18.795 -114.364)"><circle data-name="Ellipse 9" cx="27.325" cy="27.325" r="27.325" transform="rotate(-37.958 483.808 -193.546)" fill="#413657"/><path data-name="Path 115" d="M232.5 263.426s-8.027-.112-8.937-7.637c-.774-6.4 7.538-4.291 5.637-8.958s-4.467-8.691 1.471-11.532c5.193-2.485 6.264 1.24 12.026-6.073 6.808-8.639 17.21 4.535 24.9 3.005 11.342-2.256 14.4 3.693 16.818 8.459s-.956 9.434-.956 9.434z" fill="#413657"/><g data-name="Group 115"><path data-name="Path 116" d="M239.677 274.518s-5.646-4.49-7.554.94 6.054 17.919 12.809 12.6z" fill="#f77853"/><g data-name="Group 112"><path data-name="Path 117" d="M242.167 284.278a.667.667 0 01-.743-.309c-2.281-3.9-7.088-4.47-7.137-4.475a.666.666 0 01.142-1.325c.224.024 5.518.635 8.145 5.128a.667.667 0 01-.239.911.7.7 0 01-.168.07z" fill="#e85143"/></g><g data-name="Group 114"><g data-name="Group 113"><path data-name="Path 118" d="M237.21 283.306a.666.666 0 01-.8-.852 6.067 6.067 0 011.909-2.58.665.665 0 11.833 1.038 4.837 4.837 0 00-1.477 1.957.664.664 0 01-.465.437z" fill="#e85143"/></g></g></g><path data-name="Path 119" d="M276.716 292.116l3.54 13.563s-4.016 7.432-9.363 9.331-10.358-3.721-10.358-3.721l-3.4-13.042z" fill="#fda380"/><path data-name="Path 120" d="M276.716 292.116l1.571 6.018c-2.607 5.031-8.86 7.75-18.878 8.844l-2.279-8.731z" fill="#f77853"/><path data-name="Path 121" d="M281.922 253.553a136.191 136.191 0 012.713 17.591 42.16 42.16 0 01.1 3.881c-.245 10.739-2.91 29.741-24.76 27.819-9.65-.846-16.308-9.611-20.741-19.134a99.92 99.92 0 01-6.178-18.208 14.633 14.633 0 014.039-13.923c10.051-9.768 23.15-10.524 32.168-9.513a14.587 14.587 0 0112.659 11.487z" fill="#fda380"/><circle data-name="Ellipse 10" cx="4.614" cy="4.614" r="4.614" transform="translate(258.532 284.226)" fill="#fff"/><g data-name="Group 129"><g data-name="Group 128"><g data-name="Group 118"><g data-name="Group 117"><g data-name="Group 116"><path data-name="Path 122" d="M260.445 269.391l.28 1.07a8.269 8.269 0 0010.075 5.929l.261-.068a7.459 7.459 0 004.393-3.494 8.132 8.132 0 00.84-6.223l-.33-1.264a2.958 2.958 0 00-1.344-1.773 2.894 2.894 0 00-2.2-.3l-9.892 2.582a2.9 2.9 0 00-2.117 2.264 2.814 2.814 0 00.024 1.207.452.452 0 00.01.07zm1.167-.3a1.7 1.7 0 011.216-2.074l9.892-2.582a1.7 1.7 0 012.075 1.215l.33 1.265a6.908 6.908 0 01-.708 5.295 6.289 6.289 0 01-3.686 2.956l-.238.062a7.06 7.06 0 01-8.6-5.067z" fill="#413657"/></g></g></g><g data-name="Group 121"><g data-name="Group 120"><g data-name="Group 119"><path data-name="Path 123" d="M240.639 274.561l.279 1.07a8.269 8.269 0 0010.073 5.929l.265-.068a7.453 7.453 0 004.39-3.494 8.14 8.14 0 00.843-6.224l-.33-1.264a.255.255 0 00-.018-.053 2.813 2.813 0 00-.519-1.016 2.9 2.9 0 00-3.01-1.009l-9.9 2.583a2.912 2.912 0 00-1.9 1.58 2.832 2.832 0 00-.268 1.184 2.644 2.644 0 00.095.782zm1.167-.3a1.7 1.7 0 011.215-2.075l9.9-2.583a1.7 1.7 0 012.075 1.216l.33 1.264a6.925 6.925 0 01-.708 5.295 6.291 6.291 0 01-3.686 2.957l-.241.063a7.069 7.069 0 01-8.6-5.067z" fill="#413657"/></g></g></g><g data-name="Group 123"><g data-name="Group 122"><path data-name="Path 124" d="M282.155 260.216a14.413 14.413 0 00-6.37 3.048c-.231.2-.818.842-.844.869l.814.846c.007-.007.66-.671.927-.89a12.627 12.627 0 015.776-2.709z" fill="#413657"/></g></g><g data-name="Group 125"><g data-name="Group 124"><path data-name="Path 125" d="M261.24 269.23l.1-1.2a12.321 12.321 0 00-3.66.328 8.128 8.128 0 00-3.041 1.449l.784.916a7.11 7.11 0 012.562-1.2 11.281 11.281 0 013.255-.293z" fill="#413657"/></g></g><g data-name="Group 127"><g data-name="Group 126"><path data-name="Path 126" d="M235.769 272.625l.305 1.17a15.638 15.638 0 015.019.07l.24-1.18a16.349 16.349 0 00-5.564-.06z" fill="#413657"/></g></g></g></g><path data-name="Path 127" d="M250.186 273.666c.378 1.447-.062 2.816-.982 3.056s-1.973-.738-2.351-2.186.062-2.817.982-3.057 1.973.739 2.351 2.187z" fill="#413657"/><path data-name="Path 128" d="M269.7 268.571c.377 1.448-.062 2.817-.983 3.057s-1.973-.739-2.351-2.186.062-2.817.982-3.057 1.976.739 2.352 2.186z" fill="#413657"/><path data-name="Path 129" d="M240.454 269.786s4-6.589 9.843-8.022l1.181 2.32a23.282 23.282 0 00-8.919 7.824c-1.005-.721-1.743-.873-2.105-2.122z" fill="#413657"/><path data-name="Path 130" d="M273.293 261.6s-6.669-3.868-12.483-2.331l.075 2.6a23.273 23.273 0 0111.575 2.6c.54-1.111 1.113-1.597.833-2.869z" fill="#413657"/><g data-name="Group 131"><g data-name="Group 130"><path data-name="Path 131" d="M262.168 282.272a7.1 7.1 0 002.2-1.1.666.666 0 00-.8-1.066c-.52.388-1.82 1.123-2.52.918-.135-.039-.331-.136-.474-.517a100.576 100.576 0 01-2.186-9.969.666.666 0 00-1.312.23 98.57 98.57 0 002.251 10.206 2.032 2.032 0 001.348 1.329 2.809 2.809 0 001.493-.031z" fill="#f77853"/></g></g><g data-name="Group 132"><path data-name="Path 132" d="M265.485 296.4a6.974 6.974 0 002.911-1.7.666.666 0 10-.956-.928 5.67 5.67 0 01-2.292 1.339 5.39 5.39 0 01-2.525-.079.666.666 0 00-.391 1.273 6.655 6.655 0 003.253.095z" fill="#f77853"/></g><path data-name="Path 133" d="M240.137 278.989c-1.181-2.53-2.557-5.833-2.666-7.683-.185-3.274 1.914-5.776.272-8.551s.684-6.838 2.883-7.983 7.949-1.413 12.653-5.364c4.49-3.775 13.855-4.357 16.166-1.447 2.8 3.524.5 4.525 6.423 7.579 2.357 1.219 1.256 6.269 1.689 9.253a20.043 20.043 0 00.779 3.448l.209.722 5.739-1.5c-.541-4.662-1.474-9.715-2.36-13.915a14.588 14.588 0 00-12.656-11.483c-9.019-1.011-22.114-.259-32.171 9.512a14.629 14.629 0 00-4.034 13.922 105.986 105.986 0 004.443 14.175z" fill="#413657"/><g data-name="Group 137"><path data-name="Path 134" d="M282.387 270.609a24.922 24.922 0 01-.819-4.572c-.169-2.115-.061-4.1 1.787-5.485 1.488-1.112 3.261-1.589 5.016-.044 4.319 3.8 4.6 19.079-3.892 17.74z" fill="#fda380"/><g data-name="Group 134"><g data-name="Group 133"><path data-name="Path 135" d="M284.861 273.679a.669.669 0 00.364-.718c-.8-4.447 2.479-8 2.513-8.04a.666.666 0 00-.969-.914c-.155.164-3.78 4.069-2.855 9.191a.666.666 0 00.774.537.673.673 0 00.173-.056z" fill="#f77853"/></g></g><g data-name="Group 136"><g data-name="Group 135"><path data-name="Path 136" d="M287.995 269.718a.656.656 0 00.278-.253.666.666 0 00-.223-.915 6.092 6.092 0 00-3.129-.719.666.666 0 00.043 1.331 4.8 4.8 0 012.394.527.666.666 0 00.637.029z" fill="#f77853"/></g></g></g></g></g><g data-name="Group 140" transform="translate(-18.795 -114.364)"><rect data-name="Rectangle 16" width="118.301" height="14.242" rx="2.313" transform="translate(137.133 393.552)" fill="#1a0b42"/><path data-name="Path 137" d="M137.158 407.794l-22.237-75.821c-1.249-4.258 2.276-8.438 7.117-8.438h48.931a7.3 7.3 0 017.092 4.894l24.486 79.365z" fill="#413657"/><path data-name="Path 138" d="M178.065 328.43l24.282 78.711h5.591l-24.282-78.711a7.309 7.309 0 00-7.1-4.9h-5.592a7.309 7.309 0 017.101 4.9z" fill="#1a0b42"/><path data-name="Path 139" d="M165.486 368.434c1.252 5.371-2.186 9.709-7.678 9.689a13.213 13.213 0 01-12.213-9.76c-1.252-5.371 2.186-9.709 7.679-9.689a13.212 13.212 0 0112.212 9.76z" fill="#554e72"/></g></g><g data-name="Group 142"><path data-name="Rectangle 17" d="M41.332 293.443h375.01a7.228 7.228 0 017.228 7.228v.692a7.228 7.228 0 01-7.228 7.228H41.329a7.228 7.228 0 01-7.228-7.228v-.69a7.231 7.231 0 017.231-7.23z" fill="#fff"/><path data-name="Path 140" d="M423.57 300.672v.346H34.105v-.346a7.228 7.228 0 017.228-7.229H416.34a7.229 7.229 0 017.23 7.229z" fill="#8b5cf9"/></g><g data-name="Group 179" opacity=".4"><g data-name="Group 155"><g data-name="Group 150"><g data-name="Group 149"><g data-name="Group 143"><path data-name="Path 141" d="M61.772 16.116h-1.194a.6.6 0 01-.517-.9l.6-1.033a.6.6 0 111.034.6l-.08.139h.16a.6.6 0 010 1.194z" fill="#b18fff"/></g><g data-name="Group 144"><path data-name="Path 142" d="M62.235 13.246a.589.589 0 01-.3-.081.6.6 0 01-.218-.815l1.06-1.836a.6.6 0 111.034.6L62.75 12.95a.6.6 0 01-.515.296zm2.12-3.673a.6.6 0 01-.516-.895l1.06-1.837a.6.6 0 011.034.6l-1.06 1.836a.6.6 0 01-.518.296zM66.476 5.9a.6.6 0 01-.517-.895l1.061-1.837a.6.6 0 011.034.6l-1.061 1.837a.6.6 0 01-.517.295z" fill="#b18fff"/></g><g data-name="Group 145"><path data-name="Path 143" d="M69.791 2.227a.6.6 0 01-.517-.3l-.08-.139-.08.139a.6.6 0 01-1.034-.6l.6-1.034a.6.6 0 011.034 0l.6 1.034a.6.6 0 01-.517.9z" fill="#b18fff"/></g><g data-name="Group 146"><path data-name="Path 144" d="M76.153 13.246a.6.6 0 01-.518-.3l-1.06-1.836a.6.6 0 111.034-.6l1.06 1.836a.6.6 0 01-.219.815.585.585 0 01-.297.085zm-2.121-3.673a.6.6 0 01-.517-.3l-1.061-1.837a.6.6 0 011.034-.6l1.061 1.836a.6.6 0 01-.517.9zM71.912 5.9a.6.6 0 01-.518-.3l-1.06-1.837a.6.6 0 011.034-.6L72.428 5a.6.6 0 01-.516.895z" fill="#b18fff"/></g><g data-name="Group 147"><path data-name="Path 145" d="M77.805 16.116h-1.19a.6.6 0 110-1.194h.16l-.08-.139a.6.6 0 011.034-.6l.6 1.033a.6.6 0 01-.517.9z" fill="#b18fff"/></g><g data-name="Group 148"><path data-name="Path 146" d="M74.495 16.116h-2.121a.6.6 0 110-1.194h2.121a.6.6 0 010 1.194zm-4.241 0h-2.121a.6.6 0 010-1.194h2.121a.6.6 0 010 1.194zm-4.241 0h-2.12a.6.6 0 110-1.194h2.12a.6.6 0 010 1.194z" fill="#b18fff"/></g></g></g><g data-name="Group 152"><g data-name="Group 151"><path data-name="Path 147" d="M98.558 26.216a.618.618 0 01-.085-.006 8.9 8.9 0 01-2.447-.718.6.6 0 01.5-1.085 7.718 7.718 0 002.119.621.6.6 0 01-.084 1.188zm2.377 0a.6.6 0 01-.083-1.188 7.752 7.752 0 002.119-.621.6.6 0 11.5 1.085 8.887 8.887 0 01-2.447.718.6.6 0 01-.089.006zm4.284-1.957a.6.6 0 01-.391-1.048 7.775 7.775 0 001.448-1.67.6.6 0 011 .647 9 9 0 01-1.67 1.925.594.594 0 01-.387.146zm-10.945 0a.594.594 0 01-.391-.146 8.972 8.972 0 01-1.669-1.926.6.6 0 111-.646 7.79 7.79 0 001.447 1.67.6.6 0 01-.391 1.048zm13.493-3.961a.614.614 0 01-.168-.024.6.6 0 01-.4-.741 7.779 7.779 0 00.313-2.186.6.6 0 111.193 0 8.97 8.97 0 01-.36 2.522.6.6 0 01-.578.429zm-16.041 0a.6.6 0 01-.572-.429 8.97 8.97 0 01-.36-2.522.6.6 0 111.193 0 7.78 7.78 0 00.312 2.187.6.6 0 01-.4.74.575.575 0 01-.173.024zm16.041-4.708a.6.6 0 01-.572-.429 7.752 7.752 0 00-.918-2.009.6.6 0 111-.646 8.9 8.9 0 011.06 2.319.6.6 0 01-.4.741.609.609 0 01-.17.024zm-16.04 0a.614.614 0 01-.168-.024.6.6 0 01-.4-.741 8.9 8.9 0 011.061-2.319.6.6 0 011 .647 7.73 7.73 0 00-.918 2.008.6.6 0 01-.575.427zm13.493-3.959a.6.6 0 01-.391-.147 7.793 7.793 0 00-1.857-1.2.6.6 0 11.5-1.085 8.936 8.936 0 012.143 1.38.6.6 0 01-.391 1.048zm-10.945 0a.6.6 0 01-.391-1.048 9 9 0 012.143-1.379.6.6 0 01.5 1.086 7.764 7.764 0 00-1.858 1.195.594.594 0 01-.394.142zm6.663-1.956a.608.608 0 01-.085-.006 7.911 7.911 0 00-2.211 0 .6.6 0 01-.168-1.182 9.13 9.13 0 012.547 0 .6.6 0 01-.083 1.188z" fill="#fff"/></g></g><g data-name="Group 154"><g data-name="Group 153"><path data-name="Path 148" d="M56.63 48.812a.608.608 0 01-.085-.006 8.92 8.92 0 01-2.447-.717.6.6 0 11.5-1.086 7.683 7.683 0 002.119.621.6.6 0 01-.083 1.188zm2.377 0a.6.6 0 01-.084-1.188 7.673 7.673 0 002.119-.621.6.6 0 11.5 1.086 8.913 8.913 0 01-2.446.717.618.618 0 01-.091.006zm4.284-1.957a.6.6 0 01-.392-1.048 7.766 7.766 0 001.448-1.669.6.6 0 011 .646 8.971 8.971 0 01-1.669 1.925.6.6 0 01-.387.146zm-10.946 0a.594.594 0 01-.39-.146 8.977 8.977 0 01-1.67-1.926.6.6 0 011-.646 7.823 7.823 0 001.448 1.67.6.6 0 01-.392 1.048zm13.494-3.961a.573.573 0 01-.168-.024.6.6 0 01-.405-.741 7.768 7.768 0 00.312-2.186.6.6 0 011.194 0 8.935 8.935 0 01-.361 2.522.6.6 0 01-.572.429zm-16.041 0a.6.6 0 01-.573-.429 8.97 8.97 0 01-.36-2.522.6.6 0 111.194 0 7.775 7.775 0 00.312 2.187.6.6 0 01-.4.741.614.614 0 01-.173.023zm16.041-4.708a.6.6 0 01-.573-.429 7.73 7.73 0 00-.918-2.008.6.6 0 011-.647 8.928 8.928 0 011.06 2.319.6.6 0 01-.4.741.614.614 0 01-.169.024zm-16.04 0a.585.585 0 01-.169-.024.6.6 0 01-.4-.741 8.922 8.922 0 011.06-2.318.6.6 0 111 .646 7.716 7.716 0 00-.919 2.008.6.6 0 01-.572.427zm13.492-3.959a.6.6 0 01-.391-.146 7.743 7.743 0 00-1.857-1.2.6.6 0 01.5-1.086 8.976 8.976 0 012.143 1.38.6.6 0 01-.392 1.048zm-10.944 0a.6.6 0 01-.391-1.047 8.937 8.937 0 012.143-1.38.6.6 0 01.5 1.086 7.739 7.739 0 00-1.857 1.195.594.594 0 01-.395.142zm6.662-1.956a.618.618 0 01-.085-.006 7.9 7.9 0 00-2.21 0 .6.6 0 11-.168-1.182 9.131 9.131 0 012.547 0 .6.6 0 01-.084 1.188z" fill="#fff"/></g></g></g><g data-name="Group 174"><g data-name="Group 163"><g data-name="Group 162"><g data-name="Group 156"><path data-name="Path 149" d="M337.079 60.336h-1.194a.6.6 0 01-.517-.9l.6-1.034a.6.6 0 011.034.6l-.08.139h.16a.6.6 0 110 1.194z" fill="#b18fff"/></g><g data-name="Group 157"><path data-name="Path 150" d="M337.542 57.462a.588.588 0 01-.3-.08.6.6 0 01-.218-.815l1.06-1.836a.6.6 0 111.034.6l-1.061 1.836a.6.6 0 01-.515.295zm2.12-3.672a.6.6 0 01-.516-.9l1.06-1.836a.6.6 0 111.034.6l-1.06 1.836a.6.6 0 01-.518.3zm2.121-3.673a.6.6 0 01-.517-.9l1.061-1.837a.6.6 0 011.033.6l-1.06 1.836a.6.6 0 01-.517.301z" fill="#b18fff"/></g><g data-name="Group 158"><path data-name="Path 151" d="M345.098 46.444a.6.6 0 01-.517-.3l-.08-.139-.08.139a.6.6 0 01-1.034-.6l.6-1.034a.6.6 0 011.034 0l.6 1.034a.6.6 0 01-.517.9z" fill="#b18fff"/></g><g data-name="Group 159"><path data-name="Path 152" d="M351.46 57.462a.6.6 0 01-.518-.3l-1.06-1.836a.6.6 0 111.034-.6l1.06 1.836a.6.6 0 01-.219.815.584.584 0 01-.297.085zm-2.121-3.672a.6.6 0 01-.517-.3l-1.061-1.836a.6.6 0 111.034-.6l1.06 1.836a.6.6 0 01-.516.9zm-2.12-3.673a.6.6 0 01-.518-.3l-1.06-1.836a.6.6 0 011.034-.6l1.06 1.837a.6.6 0 01-.516.9z" fill="#b18fff"/></g><g data-name="Group 160"><path data-name="Path 153" d="M353.116 60.336h-1.194a.6.6 0 110-1.194h.16l-.08-.139a.6.6 0 011.034-.6l.6 1.034a.6.6 0 01-.517.9z" fill="#b18fff"/></g><g data-name="Group 161"><path data-name="Path 154" d="M349.805 60.336h-2.121a.6.6 0 110-1.194h2.121a.6.6 0 110 1.194zm-4.241 0h-2.121a.6.6 0 010-1.194h2.121a.6.6 0 110 1.194zm-4.241 0h-2.12a.6.6 0 010-1.194h2.12a.6.6 0 110 1.194z" fill="#b18fff"/></g></g></g><g data-name="Group 171"><g data-name="Group 170"><g data-name="Group 164"><path data-name="Path 155" d="M381.23 38.294h-1.194a.6.6 0 01-.517-.9l.6-1.034a.6.6 0 011.034.6l-.08.139h.16a.6.6 0 010 1.193z" fill="#b18fff"/></g><g data-name="Group 165"><path data-name="Path 156" d="M381.692 35.424a.6.6 0 01-.516-.895l1.06-1.837a.6.6 0 011.034.6l-1.06 1.837a.6.6 0 01-.518.295zm2.121-3.673a.588.588 0 01-.3-.08.6.6 0 01-.219-.815l1.061-1.836a.6.6 0 111.033.6l-1.06 1.837a.6.6 0 01-.515.294zm2.12-3.672a.6.6 0 01-.516-.9l1.06-1.836a.6.6 0 111.034.6l-1.06 1.836a.6.6 0 01-.518.3z" fill="#b18fff"/></g><g data-name="Group 166"><path data-name="Path 157" d="M389.249 24.406a.6.6 0 01-.518-.3l-.08-.138-.08.138a.6.6 0 11-1.034-.6l.6-1.033a.6.6 0 011.034 0l.6 1.033a.6.6 0 01-.516.9z" fill="#b18fff"/></g><g data-name="Group 167"><path data-name="Path 158" d="M395.605 35.424a.6.6 0 01-.518-.3l-1.06-1.837a.6.6 0 011.034-.6l1.06 1.837a.6.6 0 01-.516.895zm-2.12-3.673a.6.6 0 01-.518-.3l-1.06-1.837a.6.6 0 111.034-.6l1.06 1.836a.6.6 0 01-.219.815.584.584 0 01-.292.086zm-2.121-3.672a.6.6 0 01-.518-.3l-1.06-1.836a.6.6 0 111.034-.6l1.06 1.836a.6.6 0 01-.516.9z" fill="#b18fff"/></g><g data-name="Group 168"><path data-name="Path 159" d="M397.267 38.294h-1.194a.6.6 0 110-1.193h.16l-.08-.139a.6.6 0 011.034-.6l.6 1.034a.6.6 0 01-.516.9z" fill="#b18fff"/></g><g data-name="Group 169"><path data-name="Path 160" d="M393.952 38.294h-2.12a.6.6 0 110-1.193h2.12a.6.6 0 110 1.193zm-4.241 0h-2.12a.6.6 0 110-1.193h2.12a.6.6 0 110 1.193zm-4.241 0h-2.12a.6.6 0 110-1.193h2.12a.6.6 0 110 1.193z" fill="#b18fff"/></g></g></g><g data-name="Group 173"><g data-name="Group 172"><path data-name="Path 161" d="M357.705 35.475a.6.6 0 01-.085-.006 8.887 8.887 0 01-2.447-.718.6.6 0 11.5-1.085 7.752 7.752 0 002.119.621.6.6 0 01-.083 1.188zm2.377 0a.6.6 0 01-.084-1.188 7.742 7.742 0 002.119-.621.6.6 0 11.5 1.085 8.88 8.88 0 01-2.446.718.617.617 0 01-.093.006zm4.284-1.957a.6.6 0 01-.392-1.048 7.748 7.748 0 001.448-1.67.6.6 0 011 .647 9 9 0 01-1.67 1.925.594.594 0 01-.39.146zm-10.946 0a.594.594 0 01-.39-.146 8.971 8.971 0 01-1.67-1.925.6.6 0 111-.646 7.823 7.823 0 001.448 1.67.6.6 0 01-.392 1.047zm13.494-3.96a.609.609 0 01-.168-.024.6.6 0 01-.4-.741 7.78 7.78 0 00.312-2.187.6.6 0 111.194 0 8.974 8.974 0 01-.361 2.523.6.6 0 01-.586.428zm-16.041 0a.6.6 0 01-.573-.43 8.965 8.965 0 01-.36-2.522.6.6 0 111.194 0 7.768 7.768 0 00.312 2.186.6.6 0 01-.4.741.58.58 0 01-.177.024zm16.041-4.708a.6.6 0 01-.573-.429 7.736 7.736 0 00-.918-2.009.6.6 0 011-.646 8.929 8.929 0 011.06 2.319.6.6 0 01-.405.741.614.614 0 01-.173.023zm-16.04 0a.616.616 0 01-.169-.024.6.6 0 01-.4-.741 8.9 8.9 0 011.06-2.319.6.6 0 011 .647 7.7 7.7 0 00-.919 2.008.6.6 0 01-.576.426zm13.492-3.96a.6.6 0 01-.391-.146 7.773 7.773 0 00-1.857-1.2.6.6 0 11.5-1.085 9 9 0 012.143 1.379.6.6 0 01-.392 1.048zm-10.944 0a.6.6 0 01-.391-1.048 8.9 8.9 0 012.143-1.379.6.6 0 11.5 1.085 7.773 7.773 0 00-1.857 1.2.6.6 0 01-.399.138zm6.662-1.956a.616.616 0 01-.085-.006 7.867 7.867 0 00-2.21 0 .6.6 0 01-.169-1.182 9.1 9.1 0 012.548 0 .6.6 0 01-.084 1.188z" fill="#fff"/></g></g></g></g><g data-name="Group 180"><g data-name="Group 175"><path data-name="Path 162" d="M336.793 104.921v19.082a4.57 4.57 0 01-4.569 4.569h-34.648l-10.46 3.753a1.33 1.33 0 01-1.69-1.732l3.956-10.219v-15.453a4.571 4.571 0 014.572-4.569h38.27a4.57 4.57 0 014.569 4.569z" fill="#ee5050"/></g><g data-name="Group 177"><g data-name="Group 176" fill="#fff" transform="translate(-18.795 -114.364)"><path data-name="Path 163" d="M325.488 229.369a3.305 3.305 0 11-3.3-3.305 3.305 3.305 0 013.3 3.305z"/><circle data-name="Ellipse 11" cx="3.305" cy="3.305" r="3.305" transform="translate(329.34 226.064)"/><path data-name="Path 164" d="M346.413 229.369a3.3 3.3 0 11-3.3-3.305 3.305 3.305 0 013.3 3.305z"/></g></g></g></svg>