<svg xmlns="http://www.w3.org/2000/svg" width="552.742" height="559.905"><path d="M548.555 113.889a38.51 38.51 0 00-51.775-16.89l-99.657 50.632a38.52 38.52 0 01-34.895-68.682l11.989-6.091a38.514 38.514 0 00-34.89-68.673L21.081 165.872a38.514 38.514 0 1034.89 68.673l91.464-46.47a38.52 38.52 0 0134.9 68.682l-138.22 70.224a38.514 38.514 0 1034.89 68.673l-9.36 4.755a38.514 38.514 0 0134.89 68.673l-35.356 17.962a38.514 38.514 0 1034.89 68.673l362.656-184.25a38.514 38.514 0 10-34.89-68.674l-146.992 74.68a38.514 38.514 0 11-34.889-68.673L531.67 165.672a38.525 38.525 0 0016.885-51.783z" fill="#5376de" opacity=".2"/></svg>