<svg xmlns="http://www.w3.org/2000/svg" width="809.079" height="545.05"><g transform="translate(0 -25.197)"><path data-name="Path 61" d="M808.979 305.267v-.364a98.174 98.174 0 00-4.711-25.765c-.155-.472-.309-.951-.472-1.416a98.19 98.19 0 00-166.232-33.561 138.776 138.776 0 00-7.82-27.436 440.6 440.6 0 01-77.837 2.9 314.048 314.048 0 0049.349 17.922l-.6 2.243a316.915 316.915 0 01-55.166-20.652l-5.345-2.591 5.925.387a440.732 440.732 0 0082.764-2.375 139.558 139.558 0 00-24.384-38.738c-44.523-4.486-88.7-13.83-129.948-32.355l.951-2.112c40.152 18.046 83.182 27.32 126.622 31.884a139.044 139.044 0 00-221.012 23.491 190.969 190.969 0 00-47.368-107.438 446.013 446.013 0 01-73.3 22.207 443.331 443.331 0 01-114.595 9.123 314.038 314.038 0 0049.349 17.922l-.6 2.243a316.912 316.912 0 01-55.149-20.655l-5.345-2.591 5.925.387A440.284 440.284 0 00332.086 87.49q-3.442-3.769-7.086-7.369c-76.128 1.547-159.039.773-234.1-26.554A191.464 191.464 0 000 216.679c0 35.937 9.878 85.356 27.072 134.937a573.356 573.356 0 0027 64.974c5.252 10.674 10.829 21.047 16.684 30.979a351.612 351.612 0 0023.275 34.807q2.274 2.994 4.6 5.879a212.334 212.334 0 0028.996 30.066q3.225 2.692 6.49 5.128a123.613 123.613 0 0018.564 11.6 85.6 85.6 0 0035.039 9.5c.959.039 1.926.062 2.885.062v.394H710.4v-.394h.387a26.3 26.3 0 008.787-1.547c18.378-6.521 35.3-32.7 49.372-65.794a442.504 442.504 0 008.918-22.9 555.808 555.808 0 007.1-21.217 654.163 654.163 0 0016.36-63.86c4.958-24.535 7.735-45.984 7.735-59.559.02-1.52.02-2.989-.08-4.467z" fill="#6c63ff" opacity=".1"/><path data-name="Path 42" d="M322.665 77.875A190.76 190.76 0 0093.446 52.063c73.467 26.299 154.529 27.267 229.219 25.812z" fill="#6c63ff" opacity=".1"/><path data-name="Path 49" d="M659.345 298.809l-8.4 5.329 5.1-9.282a8.307 8.307 0 00-5.082-1.81h-.131a9.968 9.968 0 01-1.74-.131l-2.854 1.8 1.222-2.212a10.2 10.2 0 01-4.981-3.782l-5.113 3.218 3.218-5.855a14.85 14.85 0 00-11.417-5.778c-5.3 0-10.055 3.156-13.072 8.068a9.762 9.762 0 01-8.64 4.641h-.256c-5.848 0-10.6 6.629-10.6 14.813s4.749 14.82 10.6 14.82a7.951 7.951 0 003.69-.92 15.253 15.253 0 0112.825-.248 13.436 13.436 0 0010.906 0 15.277 15.277 0 0112.709.247 8.005 8.005 0 003.651.9c5.855 0 10.6-6.629 10.6-14.82a18.836 18.836 0 00-2.228-9z" fill="#6c63ff"/><path data-name="Path 43" d="M748.468 504.984l-80.227-138.959a2.553 2.553 0 00-4.432 0l-80.228 138.959a2.553 2.553 0 002.212 3.867h23.932a2.568 2.568 0 012.56 2.56v29.656a2.56 2.56 0 002.553 2.56h31.226a2.56 2.56 0 002.56-2.56v-14.332a2.553 2.553 0 012.553-2.552h29.687a2.56 2.56 0 012.56 2.553v14.333a2.56 2.56 0 002.56 2.56h31.218a2.56 2.56 0 002.56-2.56v-29.688a2.56 2.56 0 012.56-2.56h23.932a2.56 2.56 0 002.212-3.837zm-111.879 15.378a2.552 2.552 0 01-1.81.773H623.54a2.56 2.56 0 110-5.121h11.262a2.56 2.56 0 011.81 4.37zm73.7 0a2.553 2.553 0 01-1.81.773h-11.232a2.56 2.56 0 010-5.121h11.278a2.56 2.56 0 011.81 4.37z" fill="#6c63ff" opacity=".1"/><path data-name="Path 44" d="M252.586 506.207l-80.227-138.959a2.56 2.56 0 00-4.432 0L98.629 487.272a211.683 211.683 0 0029 29.942h11.29a2.56 2.56 0 110 5.121h-4.765a123.98 123.98 0 0018.565 11.548v-5.917a2.56 2.56 0 012.56-2.56h29.687a2.56 2.56 0 012.553 2.56v14.325a2.491 2.491 0 00.24 1.075 2.56 2.56 0 002.32 1.485h31.226a2.506 2.506 0 002.034-1.029 2.46 2.46 0 00.518-1.547v-29.664a2.56 2.56 0 012.56-2.56h23.932a2.56 2.56 0 002.235-3.844zm-53.023 11.757a2.552 2.552 0 011.81-.773h11.262a2.56 2.56 0 110 5.121h-11.27a2.56 2.56 0 01-1.81-4.37zm-50.394-51.422a2.56 2.56 0 01-2.56-2.56v-19.446a2.56 2.56 0 012.56-2.56h41.962a2.56 2.56 0 012.553 2.56v19.446a2.56 2.56 0 01-2.553 2.56z" fill="#6c63ff" opacity=".1"/><path data-name="Path 45" d="M569.705 256.584h-99.278V235.11a5.136 5.136 0 00-5.136-5.136h-29.154v-22.871a3.233 3.233 0 00-3.233-3.233h-37.553a3.233 3.233 0 00-3.233 3.233v22.865h-34.275a5.136 5.136 0 00-5.136 5.136v21.472h-94.664a1.044 1.044 0 00-1.036 1.044v285.058a1.044 1.044 0 001.036 1.044h62.916a1.044 1.044 0 001.044-1.044v-38.35a1.052 1.052 0 011.044-1.044h26.577a1.052 1.052 0 011.044 1.044v38.35a1.044 1.044 0 001.036 1.044h124.339a1.052 1.052 0 001.044-1.044v-38.35a1.044 1.044 0 011.036-1.044H504.7a1.044 1.044 0 011.043 1.044v38.35a1.052 1.052 0 001.044 1.044h62.916a1.052 1.052 0 001.044-1.044v-285.05a1.052 1.052 0 00-1.042-1.044zm-258.967 233.38a1.036 1.036 0 01-1.036 1.036h-38.859a1.037 1.037 0 01-1.044-1.036V476.71a1.044 1.044 0 011.044-1.044h38.861a1.044 1.044 0 011.036 1.044zm0-34.3a1.036 1.036 0 01-1.036 1.044h-38.859a1.036 1.036 0 01-1.044-1.044v-13.263a1.037 1.037 0 011.044-1.044h38.861a1.037 1.037 0 011.036 1.044zm0-34.289a1.044 1.044 0 01-1.036 1.044h-38.859a1.044 1.044 0 01-1.044-1.044v-13.27a1.044 1.044 0 011.044-1.044h38.861a1.044 1.044 0 011.036 1.044zm0-34.3a1.036 1.036 0 01-1.036 1.044h-38.859a1.037 1.037 0 01-1.044-1.044v-13.236a1.037 1.037 0 011.044-1.044h38.861a1.037 1.037 0 011.036 1.044zm0-34.289a1.044 1.044 0 01-1.036 1.044h-38.859a1.044 1.044 0 01-1.044-1.044v-13.268a1.036 1.036 0 011.044-1.036h38.861a1.036 1.036 0 011.036 1.036zm0-34.289a1.036 1.036 0 01-1.036 1.036h-38.859a1.037 1.037 0 01-1.044-1.036v-13.268a1.044 1.044 0 011.044-1.044h38.861a1.044 1.044 0 011.036 1.044zm0-34.3a1.036 1.036 0 01-1.036 1.044h-38.859a1.037 1.037 0 01-1.044-1.044v-13.234a1.037 1.037 0 011.044-1.044h38.861a1.036 1.036 0 011.036 1.044zm92.131 205.751a1.037 1.037 0 01-1.044 1.036h-38.86a1.044 1.044 0 01-1.044-1.036V476.71a1.052 1.052 0 011.044-1.044h38.861a1.044 1.044 0 011.044 1.044zm0-34.3a1.037 1.037 0 01-1.044 1.044h-38.86a1.044 1.044 0 01-1.044-1.044v-13.247a1.044 1.044 0 011.044-1.044h38.861a1.037 1.037 0 011.044 1.044zm0-34.289a1.044 1.044 0 01-1.044 1.044h-38.86a1.052 1.052 0 01-1.044-1.044v-13.254a1.052 1.052 0 011.044-1.044h38.861a1.044 1.044 0 011.044 1.044zm0-34.3a1.036 1.036 0 01-1.044 1.044h-38.86a1.044 1.044 0 01-1.044-1.044v-13.22a1.044 1.044 0 011.044-1.044h38.861a1.037 1.037 0 011.044 1.044zm0-34.289a1.044 1.044 0 01-1.044 1.044h-38.86a1.052 1.052 0 01-1.044-1.044v-13.252a1.044 1.044 0 011.044-1.036h38.861a1.036 1.036 0 011.044 1.036zm0-34.289a1.037 1.037 0 01-1.044 1.036h-38.86a1.044 1.044 0 01-1.044-1.036v-13.252a1.052 1.052 0 011.044-1.044h38.861a1.044 1.044 0 011.044 1.044zm0-34.3a1.036 1.036 0 01-1.044 1.044h-38.86a1.044 1.044 0 01-1.044-1.044v-13.218a1.044 1.044 0 011.044-1.044h38.861a1.037 1.037 0 011.044 1.044zm62.955 205.751a1.037 1.037 0 01-1.044 1.036h-38.86a1.044 1.044 0 01-1.044-1.037V476.71a1.052 1.052 0 011.044-1.044h38.861a1.044 1.044 0 011.044 1.044zm0-34.3a1.037 1.037 0 01-1.044 1.044h-38.86a1.044 1.044 0 01-1.044-1.044v-13.25a1.044 1.044 0 011.044-1.044h38.861a1.037 1.037 0 011.044 1.044zm0-34.289a1.044 1.044 0 01-1.044 1.044h-38.86a1.052 1.052 0 01-1.044-1.044v-13.238a1.052 1.052 0 011.044-1.044h38.861a1.044 1.044 0 011.044 1.044zm0-34.3a1.037 1.037 0 01-1.044 1.044h-38.86a1.044 1.044 0 01-1.044-1.044v-13.204a1.044 1.044 0 011.044-1.044h38.861a1.037 1.037 0 011.044 1.044zm0-34.289a1.044 1.044 0 01-1.044 1.044h-38.86a1.052 1.052 0 01-1.044-1.044v-13.236a1.044 1.044 0 011.044-1.036h38.861a1.036 1.036 0 011.044 1.036zm0-34.289a1.037 1.037 0 01-1.044 1.036h-38.86a1.044 1.044 0 01-1.044-1.037v-13.235a1.052 1.052 0 011.044-1.044h38.861a1.044 1.044 0 011.044 1.044zm0-34.3a1.037 1.037 0 01-1.044 1.044h-38.86a1.044 1.044 0 01-1.044-1.044v-13.202a1.044 1.044 0 011.044-1.044h38.861a1.037 1.037 0 011.044 1.044zm92.132 205.775a1.044 1.044 0 01-1.044 1.036h-38.861a1.037 1.037 0 01-1.044-1.036v-13.23a1.044 1.044 0 011.044-1.044h38.868a1.052 1.052 0 011.044 1.044zm0-34.3a1.044 1.044 0 01-1.044 1.044h-38.861a1.036 1.036 0 01-1.044-1.044v-13.239a1.037 1.037 0 011.044-1.044h38.868a1.044 1.044 0 011.044 1.044zm0-34.289a1.052 1.052 0 01-1.044 1.044h-38.861a1.044 1.044 0 01-1.044-1.044v-13.25a1.044 1.044 0 011.044-1.044h38.868a1.052 1.052 0 011.044 1.044zm0-34.3a1.044 1.044 0 01-1.044 1.044h-38.861a1.037 1.037 0 01-1.044-1.044v-13.212a1.037 1.037 0 011.044-1.044h38.868a1.044 1.044 0 011.044 1.044zm0-34.289a1.052 1.052 0 01-1.044 1.044h-38.861a1.044 1.044 0 01-1.044-1.044v-13.25a1.036 1.036 0 011.044-1.036h38.868a1.044 1.044 0 011.044 1.036zm0-34.289a1.044 1.044 0 01-1.037 1.06h-38.868a1.037 1.037 0 01-1.044-1.036v-13.268a1.044 1.044 0 011.044-1.044h38.868a1.052 1.052 0 011.044 1.044zm0-34.3a1.044 1.044 0 01-1.044 1.044h-38.861a1.037 1.037 0 01-1.044-1.044v-13.21a1.037 1.037 0 011.044-1.044h38.868a1.044 1.044 0 011.044 1.044z" fill="#6c63ff" opacity=".1"/><path data-name="Path 47" d="M309.554 148.348l-12 7.611 7.286-13.25a11.865 11.865 0 00-7.263-2.591h-.193a14.046 14.046 0 01-2.491-.186l-4.053 2.583 1.748-3.171a14.465 14.465 0 01-7.116-5.414l-7.286 4.641 4.587-8.385c-4.262-5.113-10-8.245-16.313-8.245-7.573 0-14.317 4.5-18.672 11.517a13.962 13.962 0 01-12.376 6.66h-.41c-8.362 0-15.137 9.475-15.137 21.171s6.776 21.171 15.137 21.171a11.3 11.3 0 005.275-1.323 21.828 21.828 0 0118.316-.356 19.113 19.113 0 0015.578 0 21.821 21.821 0 0118.162.348 11.331 11.331 0 005.213 1.292c8.362 0 15.137-9.483 15.137-21.171a26.887 26.887 0 00-3.129-12.902z" fill="#6c63ff"/><path data-name="Path 48" d="M643.55 320.467a15.71 15.71 0 00-9.081.982 13.358 13.358 0 01-10.906 0 15.284 15.284 0 00-12.825.255 7.951 7.951 0 01-3.69.921c-5.2 0-9.522-5.237-10.419-12.144a10.11 10.11 0 002.6-2.8c3.048-4.912 7.735-8.068 13.064-8.068s9.97 3.094 13.018 7.975a10.009 10.009 0 008.632 4.742h.139c4.1-.016 7.682 3.302 9.468 8.137z" fill="#03c" opacity=".1"/><path data-name="Path 51" d="M168.731 249.305l8.4 5.306-5.105-9.282a8.323 8.323 0 015.082-1.81h.139a10.052 10.052 0 001.74-.131l2.846 1.8-1.222-2.212a10.218 10.218 0 004.989-3.782l5.1 3.233-3.226-5.855a14.925 14.925 0 0111.425-5.778c5.3 0 10.055 3.156 13.072 8.068a9.754 9.754 0 008.64 4.641h.278c5.855 0 10.6 6.629 10.6 14.813s-4.742 14.82-10.6 14.82a8 8 0 01-3.69-.92 15.253 15.253 0 00-12.825-.248 13.42 13.42 0 01-10.9 0 15.292 15.292 0 00-12.716.248 7.983 7.983 0 01-3.651.9c-5.848 0-10.6-6.629-10.6-14.82a18.834 18.834 0 012.224-8.991z" fill="#6c63ff"/><path data-name="Path 52" d="M169.149 547.206c10.473 6.652 25.564-.077 36.107 6.474 2.723 1.686 4.919 4.169 7.735 5.7 3.38 1.849 7.356 2.181 11.2 2.32 32.193 1.245 64.927-7.735 96.316-.48 8.779 2.027 17.365 5.322 26.361 5.8 15.54.843 30.429-6.737 45.984-7.155 23.592-.634 46.773 15.153 69.538 8.926 7.487-2.05 14.356-6.42 22.083-7.155 8.609-.773 16.885 2.978 25.255 5.167 29.679 7.735 60.588-4.8 91.273-5.732 20.01-.611 39.827 3.751 59.822 4.757 14.217.712 28.465-.286 42.666-1.276 5.414-.379 11.084-.843 15.617-3.813s7.317-9.352 4.517-13.993z" fill="#3f3d56"/><path data-name="Path 53" d="M169.149 547.206c10.473 6.652 25.564-.077 36.107 6.474 2.723 1.686 4.919 4.169 7.735 5.7 3.38 1.849 7.356 2.181 11.2 2.32 32.193 1.245 64.927-7.735 96.316-.48 8.779 2.027 17.365 5.322 26.361 5.8 15.54.843 30.429-6.737 45.984-7.155 23.592-.634 46.773 15.153 69.538 8.926 7.487-2.05 14.356-6.42 22.083-7.155 8.609-.773 16.885 2.978 25.255 5.167 29.679 7.735 60.588-4.8 91.273-5.732 20.01-.611 39.827 3.751 59.822 4.757 14.217.712 28.465-.286 42.666-1.276 5.414-.379 11.084-.843 15.617-3.813s7.317-9.352 4.517-13.993z" fill="#3c404d" opacity=".1"/><path data-name="Path 54" d="M169.149 543.339c10.473 6.652 25.564-.077 36.107 6.474 2.723 1.686 4.919 4.169 7.735 5.7 3.38 1.849 7.356 2.181 11.2 2.32 32.193 1.245 64.927-7.735 96.316-.48 8.779 2.027 17.365 5.322 26.361 5.8 15.54.843 30.429-6.737 45.984-7.155 23.592-.634 46.773 15.153 69.538 8.926 7.487-2.05 14.356-6.42 22.083-7.155 8.609-.773 16.885 2.978 25.255 5.167 29.679 7.735 60.588-4.8 91.273-5.732 20.01-.611 39.827 3.751 59.822 4.757 14.217.712 28.465-.286 42.666-1.276 5.414-.379 11.084-.843 15.617-3.813s7.317-9.352 4.517-13.993z" fill="#3f3d56"/><g data-name="Group 151" transform="translate(25.035 166.726)" opacity=".1"><path data-name="Path 55" d="M69.603 281.314a18.912 18.912 0 01-2.5 9.576 19.6 19.6 0 010 19.152 17.6 17.6 0 011.887 4.641 351.245 351.245 0 01-23.275-34.807 18.564 18.564 0 012.444-8.168 18.912 18.912 0 01-2.5-9.576 19.693 19.693 0 011.129-6.66 16.545 16.545 0 011.369-2.916c2.181-3.705 5.616-6.1 9.468-6.1s7.294 2.39 9.475 6.1a17.234 17.234 0 011.338 2.823 19.825 19.825 0 011.16 6.753 18.912 18.912 0 01-2.5 9.576 18.912 18.912 0 012.5 9.607z" fill="#3f3d56"/><ellipse data-name="Ellipse 14" cx="11.966" cy="15.671" rx="11.966" ry="15.671" transform="translate(45.662 227.347)" fill="#3f3d56"/><ellipse data-name="Ellipse 15" cx="11.966" cy="15.671" rx="11.966" ry="15.671" transform="translate(45.662 208.195)" fill="#3f3d56"/><path data-name="Path 56" d="M114.712 128.216a57.069 57.069 0 01-12.279 35.445 57.339 57.339 0 01-34.034 91.714 53.342 53.342 0 01-4.192.665 57.926 57.926 0 01-13.149.07q-2.181-.232-4.308-.642a56.7 56.7 0 01-17.79-6.505 571.257 571.257 0 01-26.927-64.808 57.076 57.076 0 0110.28-20.459 57.386 57.386 0 01-9.282-53.843l43.536 14.608-40.825-21.209a57.572 57.572 0 016.536-10.458 57.339 57.339 0 1194.7-64.162l-42.086 30.94 45.636-23.669a57.409 57.409 0 01-1.1 45.428l-34.034-.255 31.45 5.167a57.569 57.569 0 01-4.463 6.559 57.084 57.084 0 0112.33 35.411z" fill="#6c63ff"/><path data-name="Path 57" d="M114.712 199.145a57.352 57.352 0 01-46.261 56.262c-1.386.28-2.786.5-4.2.667a57.923 57.923 0 01-13.149.07q-2.181-.232-4.308-.642a56.7 56.7 0 01-17.79-6.505A571.248 571.248 0 012.04 184.155a57.077 57.077 0 0110.28-20.459 57.107 57.107 0 01-12.275-35.48c0-6.435 110.084 25.7 102.4 35.45a57.069 57.069 0 0112.267 35.479z" fill="#3c404d" opacity=".1"/></g><g data-name="Group 152" opacity=".1"><path data-name="Path 58" d="M785.024 433.127a609.677 609.677 0 01-7.1 21.217 19.831 19.831 0 01-1.021-6.35c-.001-6.908 3.399-12.771 8.121-14.867z" fill="#3f3d56"/><path data-name="Path 59" d="M809.084 309.708c0 13.575-2.738 35.024-7.735 59.559a654.168 654.168 0 01-16.359 63.86 609.677 609.677 0 01-7.1 21.217c-2.823 7.89-5.8 15.563-8.918 22.9a57.556 57.556 0 01-25.456-89.548 57.61 57.61 0 01-9.282-53.959l43.533 14.642-40.825-21.256a57.758 57.758 0 016.536-10.481 57.548 57.548 0 0122.524-88.372 98.659 98.659 0 0137.708 49.45l-7.541 5.616 8.091-4.2a98.179 98.179 0 014.711 25.765h-2.274l2.32.379c.067 1.465.067 2.935.067 4.428z" fill="#6c63ff"/><path data-name="Path 60" d="M801.383 369.268a654.092 654.092 0 01-16.359 63.86 609.677 609.677 0 01-7.1 21.217c-2.823 7.89-5.8 15.563-8.918 22.9a57.556 57.556 0 01-25.456-89.548 57.316 57.316 0 01-12.268-35.519c-.001-3.865 40.004 6.268 70.101 17.09z" fill="#3c404d" opacity=".1"/></g><path data-name="Path 62" d="M258.395 522.242l14.8-8.71a35.681 35.681 0 00-7.573-9.058l-27.931 8.686 21.89-12.863a35.581 35.581 0 00-52.67 31.211c0 19.647 15.926 20.328 35.581 20.328s35.581-.681 35.581-20.328a35.418 35.418 0 00-3.055-14.441z" fill="#6c63ff"/><path data-name="Path 63" d="M262.162 541.339a27.66 27.66 0 00-5.244-4.115c-2.692-1.787-5.469-3.612-8.64-4.216-2.785-.534-5.654-.085-8.508-.247a19.848 19.848 0 01-13-5.956c-2.019-2.088-3.612-4.641-6.041-6.258a13.288 13.288 0 00-9.058-1.663 22.468 22.468 0 00-2.676.549 35.465 35.465 0 00-2.1 12.074c0 19.647 15.926 20.328 35.581 20.328 9.537 0 18.193-.162 24.582-2.568l-1.067-2a28.153 28.153 0 00-3.821-5.933z" fill="#3c404d" opacity=".1"/><circle data-name="Ellipse 16" cx="27.653" cy="27.653" r="27.653" transform="translate(395.714 121.747)" fill="#3f3d56"/><path data-name="Path 64" d="M407.324 364.51c2.854 20.026-.627 40.446-6.049 59.931a44.5 44.5 0 01-4 10.543c-1.9 3.256-4.533 6.057-6.76 9.12-4.641 6.389-7.364 13.923-9.909 21.38a603.032 603.032 0 00-17.651 62.9 4.309 4.309 0 000 2.684c.673 1.547 2.715 1.748 4.393 1.74l21.7-.116c.773-1.485-.657-3.094-1.547-4.517-3.094-4.811-.124-11.061 2.607-16.1a173.058 173.058 0 0015.3-38.675c1.485-5.67 2.692-11.463 5.105-16.808 2.916-6.482 7.487-12.059 11.2-18.123 4.316-7.047 7.464-14.7 10.589-22.377 4.363-10.659 8.764-21.449 10.481-32.835 1.617-10.69.82-21.581-.232-32.34a2.042 2.042 0 00-2.367-2.32l-29.122-1.5c-6-.309-7.426-1.624-6.513 4.27.64 4.402 2.141 8.688 2.775 13.143z" fill="#3f3d56"/><path data-name="Path 65" d="M407.324 364.51c2.854 20.026-.627 40.446-6.049 59.931a44.5 44.5 0 01-4 10.543c-1.9 3.256-4.533 6.057-6.76 9.12-4.641 6.389-7.364 13.923-9.909 21.38a603.032 603.032 0 00-17.651 62.9 4.309 4.309 0 000 2.684c.673 1.547 2.715 1.748 4.393 1.74l21.7-.116c.773-1.485-.657-3.094-1.547-4.517-3.094-4.811-.124-11.061 2.607-16.1a173.058 173.058 0 0015.3-38.675c1.485-5.67 2.692-11.463 5.105-16.808 2.916-6.482 7.487-12.059 11.2-18.123 4.316-7.047 7.464-14.7 10.589-22.377 4.363-10.659 8.764-21.449 10.481-32.835 1.617-10.69.82-21.581-.232-32.34a2.042 2.042 0 00-2.367-2.32l-29.122-1.5c-6-.309-7.426-1.624-6.513 4.27.64 4.402 2.141 8.688 2.775 13.143z" fill="#3c404d" opacity=".1"/><path data-name="Path 66" d="M413.048 315.826c-5.917 8.508-12.121 18.3-10.156 28.488 1.493 7.735 7.387 13.73 12.948 19.337 22.23 22.323 44.089 47.122 51.654 77.713 1.949 7.905 2.893 16.019 4.571 23.978 3.048 14.464 8.508 28.295 13.923 42.04l14.511 36.625a21.936 21.936 0 0020.962-13.923c-1.9-.147-4.386-1.988-5.5-3.535-6.188-8.563-7.457-19.577-9.042-30.019-1.756-11.541-4.1-22.988-6.451-34.428l-10.4-50.618c-1.2-5.84-2.4-11.688-3.96-17.442-6.049-22.292-17.512-43.316-19.283-66.366-.263-3.388-.425-7.108-2.723-9.622-2.413-2.653-6.374-3.094-9.955-3.3-14.482-.932-26.982-2.347-41.099 1.072z" fill="#3f3d56"/><path data-name="Path 67" d="M373.962 527.865a23.1 23.1 0 00-4.811-.619 9.994 9.994 0 00-7.859 4.293 19.528 19.528 0 00-2.112 4.641l-2.1 6.018c-.619 1.764-1.222 3.8-.3 5.414a5.74 5.74 0 002.816 2.174c5.074 2.259 10.829 2.382 16.321 2.924 5.368.526 10.69 1.47 15.988 2.46 1.825.348 3.643.7 5.492.882a65.434 65.434 0 0012.422-.371l4.262-.41a15.345 15.345 0 004.192-.773 5.283 5.283 0 003.094-2.777c1.052-2.607-1.207-5.693-3.968-6.234-1.122-.217-2.32-.116-3.419-.263a16.152 16.152 0 01-3.744-1.122c-5.415-2.143-10.961-4.308-15.756-7.681-1.33-.936-2.723-2.243-2.576-3.867a7.883 7.883 0 01.688-2 7.317 7.317 0 00.062-5.175c-.263-.712-.773-1.462-1.493-1.547-2.042-.248-1.794 2.73-2.1 3.867-.41 1.547-1.152 1.686-2.607 1.547-4.168-.383-8.345-.592-12.492-1.381z" fill="#f2f2f2"/><path data-name="Path 68" d="M496.076 548.649a13.652 13.652 0 002.955 8.315 6.465 6.465 0 002.1 1.694 8.446 8.446 0 003.868.611 30.975 30.975 0 0010.744-2.174 30.72 30.72 0 013.713-1.4 41.68 41.68 0 014.827-.7c6.4-.92 12.012-4.7 18.193-6.606a38.242 38.242 0 005.414-1.779 24.814 24.814 0 006.366-4.974 15.26 15.26 0 002.924-3.5c1.137-2.112 1.207-4.641 1.253-7.031a2 2 0 00-.186-1.091 1.625 1.625 0 00-.7-.549c-1.88-.928-4.107-.464-6.188-.1-7.518 1.338-15.215 1.091-22.849.843a3.318 3.318 0 01-3.512-2l-2.9-4.641c-.828-1.33-2.143-2.854-3.643-2.4-1.2.364-1.686 1.833-1.64 3.094a16.53 16.53 0 01.193 3.744 5.112 5.112 0 01-2.475 3.218 15.807 15.807 0 01-3.867 1.485c-4.27 1.207-9.236 2.576-12.538 5.716-2.423 2.227-2.199 7.216-2.052 10.225z" fill="#f2f2f2"/><path data-name="Path 69" d="M494.575 241.772a17.922 17.922 0 004.223-4.595 18.726 18.726 0 001.8-6.35l1.214-7.673c.673-4.231 1.462-8.71 4.285-11.935s8.447-4.378 11.316-1.191a9.927 9.927 0 012.057 5.136 37.391 37.391 0 01-9.143 30.94c-3.473 3.806-7.735 6.83-11.409 10.427-3.2 3.094-5.979 6.644-8.934 10.009a123.311 123.311 0 01-24.342 21.271c.108-5.755.843-11.927 0-17.644-.627-4.13-2.32-6.358 1.678-9.058 9.288-6.312 18.653-12.02 27.255-19.337z" fill="#fbbebe"/><path data-name="Path 70" d="M416.575 185.167c-.3 4.115-2.011 8.323-5.414 10.7q14.457 5.059 28.519 11.154c-1.81-1.74-2.359-4.409-2.444-6.915-.24-6.552 2.027-12.995 5.337-18.641a4.525 4.525 0 00.874-2.46c-.108-1.825-2.274-2.669-4.053-3.094a99.672 99.672 0 00-18.5-2.684c-2.669-.085-5.832-.928-5.229 2.467a37.349 37.349 0 01.91 9.473z" fill="#fbbebe"/><circle data-name="Ellipse 17" cx="22.609" cy="22.609" r="22.609" transform="translate(412.607 142.152)" fill="#fbbebe"/><path data-name="Path 71" d="M457.602 225.83a27.351 27.351 0 00-2.87-4.811c-4.1-5.886-8.307-11.765-13.567-16.638a84.451 84.451 0 00-12.879-9.46 29.23 29.23 0 00-8.06-3.867 31.536 31.536 0 00-5.175-.7l-5.871-.48a4.8 4.8 0 00-1.547.046c-1.593.4-2.32 2.382-1.98 3.984a9.8 9.8 0 002.614 4.115c.263 11.981-5.066 23.8-5.786 35.767-1.261 20.923 11.51 40.384 12.531 61.323a6.612 6.612 0 01-.294 2.808c-.17.433-.425.828-.619 1.253a12.241 12.241 0 00-.688 4.254 21.612 21.612 0 01-6.366 13.629 9.462 9.462 0 003.589 2.738c2.467 1.075 5.414 1.168 8.037 1.918 6.838 2 13.846 4.007 20.954 3.581a18.488 18.488 0 001.617-6.087c1.006-.627 2.166.712 2.32 1.887s-.07 2.545.773 3.4 1.911.719 2.939.588c4.339-.549 8.508-2.011 12.763-2.993s8.8-1.454 12.941-.046c.835-1.06.48-2.63-.2-3.79a16.933 16.933 0 01-2.034-3.473 7.8 7.8 0 01-.248-2.282c0-6.613 1.361-13.3.07-19.786-.379-1.9-.982-3.759-1.369-5.67a48.9 48.9 0 01-.557-11.316c.1-3.782-.356-7.874-.433-11.711a37.358 37.358 0 00-.309-4.742c-.263-1.648-.773-3.256-.913-4.919-.418-4.223 1.284-8.416 1.029-12.654-.426-6.437-7.906-9.934-10.412-15.866z" fill="#ff6f61"/><path data-name="Path 72" d="M406.574 222.797c-5.476 14.526-8.153 29.934-10.829 45.234l-6.188 35.937c-1.756 10.156-3.519 20.374-3.45 30.677 0 2.893.186 5.84-.572 8.632-.99 3.666-3.45 6.722-5.314 10.055a33.09 33.09 0 00-3.558 22.377c.634 3.21 2.367 6.853 5.623 7.224 2.676.294 4.989-1.833 6.552-4.03 3.589-5.036 5.368-11.115 6.961-17.1a386.84 386.84 0 0010.728-59.629 58.049 58.049 0 011.075-7.58 53.808 53.808 0 012.614-7.549q3.55-8.8 7.108-17.6c5.469-13.559 10.968-27.181 18.479-39.727-7.426-2.135-15.153-4.641-22.578-6.753-2.145-.64-4.439-.261-6.651-.168z" fill="#fbbebe"/><path data-name="Path 73" d="M419.441 233.835c-5.2-1.122-10.574-.773-15.88-.905a3.426 3.426 0 01-2.135-.557c-1.075-.921-.619-2.645-.077-3.953l2.568-6.188a9 9 0 012.057-3.419c1.307-1.16 3.148-1.446 4.881-1.655 5.639-.65 11.44-.866 16.909.657s10.612 4.989 13.057 10.117c1.021 2.135 1.493 4.827.139 6.768-2.011 2.885-6.521 6.111-9.885 4.533-4.027-1.91-7.113-4.439-11.634-5.398z" fill="#ff6f61"/><path data-name="Path 74" d="M447.082 129.645a22.833 22.833 0 00-12.608 3.635 27.653 27.653 0 00-27.15-6.358 15.8 15.8 0 10-18.255 18.285 27.653 27.653 0 0053.078 15.54 24.75 24.75 0 004.958.5c10.906 0 19.755-7.078 19.755-15.8s-8.887-15.802-19.778-15.802z" fill="#3f3d56"/><path data-name="Path 75" d="M451.019 153.344a24.052 24.052 0 01-4.958-.5 27.515 27.515 0 01-3.62 7.957 24.835 24.835 0 004.641.449c10.195 0 18.564-6.188 19.639-14.109a21.791 21.791 0 01-15.702 6.203z" fill="#3c404d" opacity=".1"/><path data-name="Path 76" d="M419.414 173.1a27.691 27.691 0 01-26.438-35.8 15.8 15.8 0 01-13.068-15.56 15.54 15.54 0 01.255-2.831 15.8 15.8 0 008.864 26.3 27.654 27.654 0 1052.826 16.38 27.6 27.6 0 01-22.439 11.511z" fill="#3c404d" opacity=".1"/><rect data-name="Rectangle 36" width=".518" height="4.285" rx=".259" transform="rotate(35.51 -82.325 921.388)" fill="#3a3768"/><rect data-name="Rectangle 37" width=".294" height="1.408" rx=".147" transform="rotate(35.51 -68.44 896.102)" fill="#3a3768"/><rect data-name="Rectangle 38" width=".325" height="2.452" rx=".162" transform="rotate(35.51 -72.486 894.784)" fill="#3a3768"/><rect data-name="Rectangle 39" width=".309" height="2.475" rx=".155" transform="rotate(35.51 -77.658 893.15)" fill="#3a3768"/><rect data-name="Rectangle 40" width="17.388" height="35.341" rx="2.52" transform="rotate(35.51 -63.147 900.534)" fill="#3a3768"/><rect data-name="Rectangle 41" width="17.388" height="35.341" rx="2.52" transform="rotate(35.51 -63.147 900.534)" fill="#3c404d" opacity=".1"/><rect data-name="Rectangle 42" width="17.388" height="35.341" rx="2.52" transform="rotate(35.51 -61.255 898.694)" fill="#3a3768"/><path data-name="Path 77" d="M522.328 212.176l-1.617-1.16-.139.193a1.129 1.129 0 01-1.547.271l-5.167-3.69a1.137 1.137 0 01-.263-1.586l.139-.193-1.547-1.083a1.377 1.377 0 00-1.926.317l-17.852 25.023a1.385 1.385 0 00.317 1.926l10.164 7.248a1.377 1.377 0 001.926-.325l17.852-25.015a1.377 1.377 0 00-.34-1.926z" fill="#6c63ff"/><rect data-name="Rectangle 43" width="2.429" height=".495" rx=".248" transform="rotate(35.51 -66.422 909.116)" fill="#e6e8ec"/><circle data-name="Ellipse 18" cx=".278" cy=".278" r=".278" transform="translate(517.888 209.416)" fill="#e6e8ec"/><path data-name="Path 46" d="M286.968 179.331a22.346 22.346 0 00-12.972 1.408 19.113 19.113 0 01-15.648-.039 21.828 21.828 0 00-18.316.364 11.409 11.409 0 01-5.275 1.315c-7.426 0-13.606-7.48-14.89-17.35a14.241 14.241 0 003.713-4c4.355-7.016 11.1-11.525 18.672-11.525s14.232 4.455 18.564 11.394a14.317 14.317 0 0012.337 6.776h.193c5.971-.004 11.093 4.738 13.622 11.657z" fill="#03c" opacity=".3"/><path data-name="Path 50" d="M184.572 270.963a15.717 15.717 0 019.081.982 13.335 13.335 0 0010.9 0 15.284 15.284 0 0112.825.255 7.975 7.975 0 003.69.92c5.2 0 9.53-5.237 10.427-12.144a10 10 0 01-2.6-2.8c-3.032-4.927-7.774-8.1-13.088-8.1s-9.963 3.094-13.01 7.975a10.055 10.055 0 01-8.648 4.757h-.132c-4.116.003-7.705 3.321-9.445 8.155z" fill="#03c" opacity=".1"/></g></svg>