<svg xmlns="http://www.w3.org/2000/svg" width="130.06" height="89.796"><path data-name="Path 1155" d="M41.44 47.91c-.14-1.68-.35-3.22-.42-4.76-.07-3.92-.07-7.84-.21-11.76-.14-5.32-.42-10.71-.63-16.03a44.951 44.951 0 00-1.54-11.13c-.63-2.17-1.82-3.92-4.2-4.2a7.54 7.54 0 00-4.13.91 2.373 2.373 0 00-.63.98c-.49.91-.91 1.75-1.4 2.66-.56.84-.98 1.68-2.17 1.75a3.78 3.78 0 00-1.54.7c-.28.14-.63.63-.56.84.49 1.68-.07 3.43-.49 5.11-.84 3.22-1.47 6.44-2.24 9.66-.84 3.08-1.75 6.16-2.66 9.31-.14.56-.35 1.12-.49 1.68-.77 3.99-2.31 7.84-2.8 11.83v.14L12.6 57.57c-.63 2.73-1.19 5.46-1.89 8.19a3.207 3.207 0 01-1.05 1.75c-2.17 1.61-4.48 3.08-6.72 4.48-.84.49-1.82.7-2.94 1.19a17.483 17.483 0 003.36 3.15c2.1.21 3.5-1.61 5.25-2.17.07.28.14.42.07.56-.84 3.08-1.26 6.16-2.66 9.24-1.33 2.87-1.12 3.92.98 5.18 2.17 1.33 4.27.63 4.9-2.03.7-2.8 1.26-5.6 1.82-8.4.49-2.59.91-5.18 1.33-7.84a2.036 2.036 0 011.05-1.54c1.26-.91 2.59-1.82 3.85-2.8a163.591 163.591 0 0114.21-9.66c.49-.28.98-.42 1.68-.77.14 1.89.21 3.57.28 5.25 0 1.61-.07 3.29-.07 4.9 0 .7.21 1.4.21 2.17.07 1.54.07 3.08.14 4.62l.21 2.94c-.7.21-1.26.35-2.17.63a12.863 12.863 0 001.26.84c.28.21.7.28.91.49 1.19 1.05 2.73 1.05 4.27.91a2.193 2.193 0 002.17-2.52c-.28-2.94-.56-5.95-.77-8.96-.28-4.34-.42-8.68-.63-13.09-.07-1.47-.14-1.54 1.26-2.24 2.66-1.33 5.32-2.66 7.98-3.85a32.517 32.517 0 014.9-1.96 8.639 8.639 0 003.36-1.75 3.65 3.65 0 00-1.54-.42 19.355 19.355 0 00-4.48.35c-3.43.91-6.93 2.1-10.36 3.15-.42.14-.84.21-1.33.35zM32.9 7.52c1.05 14.42 1.96 28.84 2.52 43.19-6.23 3.85-12.25 7.56-18.55 11.34.42-1.61.84-3.08 1.26-4.55.84-3.01 1.61-6.09 2.45-9.1.91-3.43 1.82-6.86 2.73-10.36 1.19-4.48 2.45-8.96 3.57-13.51.77-2.94 1.26-6.02 2.17-8.96.84-2.73 2.17-5.39 3.22-8.05zM78.61 32.3c.42-.07.56-.21.77-.21.56.07 1.05-.21 1.05-.7a1.918 1.918 0 00-.56-1.26 3.856 3.856 0 00-1.89-.84c-1.68-.35-3.36-.63-5.11-.91a1.507 1.507 0 00-.77.14c-1.54.98-3.29 1.68-4.48 3.15a46.015 46.015 0 00-3.36 3.99c-2.17 3.15-4.2 6.3-6.23 9.59a34.872 34.872 0 00-4.27 10.43 6.256 6.256 0 00.84 5.46 1.653 1.653 0 01.42.63c.91 2.59 5.32 3.85 7.98 2.1a10.327 10.327 0 002.52-2.1 45.37 45.37 0 003.71-5.11c1.12-1.68 2.1-3.57 3.29-5.67.14.91.21 1.54.35 2.17.28 1.47 1.33 2.59 2.17 3.78.98 1.54 2.17 1.68 3.64.49a23.661 23.661 0 01.14-7.7c.63-3.78 1.47-7.49 2.03-11.27.35-2.24.49-4.69-2.24-6.16zM58.8 59.81a19.135 19.135 0 011.68-6.23 65.468 65.468 0 019.45-15.54c.84-1.05 1.75-2.03 2.73-3.08a1.558 1.558 0 011.75-.56c-1.05 2.17-2.1 4.27-3.08 6.44-1.54 3.08-3.01 6.16-4.62 9.24a22.069 22.069 0 01-1.54 2.31 13.133 13.133 0 00-1.47 2.52 9.269 9.269 0 01-2.38 3.01c-.7.7-1.47 1.4-2.17 2.1a1.53 1.53 0 00-.35-.21zm32.48-25.76c.07 1.82.28 3.5.21 5.18-.21 4.83-.7 9.59-.14 14.42a15.812 15.812 0 004.55 9.8 4.138 4.138 0 003.5 1.05c.98-.07 1.12-1.19 1.54-1.82.14-.14.14-.28.21-.49 1.75-4.41 3.57-8.82 5.25-13.23 1.19-3.01 2.17-6.16 3.43-9.17a46.657 46.657 0 002.17-5.46 31.743 31.743 0 011.96-4.13 2.508 2.508 0 00.28-.77c-.07-.49.14-.84-.28-1.19-.07-.07-.49.07-.91.28a9.149 9.149 0 00-.84.77c-.77 1.05-1.54 2.1-2.24 3.22a378.99 378.99 0 00-5.53 8.89c-1.68 2.8-2.73 5.95-5.04 8.33a6.619 6.619 0 00-.77 1.4 12.547 12.547 0 01-1.54 2.45c0-4.76.07-9.24-.07-13.72a15.29 15.29 0 00-.77-4.34 2.5 2.5 0 00-1.4-1.4 5.665 5.665 0 00-3.57-.07zm32.55-5.46c-.56 2.66-1.05 5.11-1.54 7.63-.28 1.05-.63 2.45-.63 2.66-.42 1.89-.84 3.78-1.12 5.74-.07.49-.07 1.33.21 1.4.7.28.56.84.56 1.33-.21 2.73-.56 5.46-.7 8.19-.07 1.75 0 3.5.07 5.18a2.185 2.185 0 001.89 2.38c.35.07.56.42.91.56 1.33.77 2.52.21 2.73-1.19.35-3.01.7-6.09 1.05-9.1.35-3.57.7-7.14 1.19-10.71.42-3.29.91-6.51 1.4-9.73a5.327 5.327 0 00-.49-3.43 1.993 1.993 0 00-1.89-1.19c-1.19.07-2.45.14-3.64.28zm-.14-5.25a9.779 9.779 0 012.03 0 2.165 2.165 0 002.59-.84 8.557 8.557 0 001.75-5.67 2.91 2.91 0 00-2.31-2.31 9.017 9.017 0 00-3.71.49 33.4 33.4 0 00-.35 8.33z" fill="#03c"/><path data-name="Path 1157" d="M54.036 81.67h-4.8l-.996 2.31h-1.82l4.466-9.87h1.47l4.466 9.87H55.03zm-.6-1.4l-1.806-4.2-1.806 4.2zm8.218-3.3a2.837 2.837 0 011.575.448A2.971 2.971 0 0164.3 78.68a4.378 4.378 0 01.385 1.883 4.24 4.24 0 01-.385 1.863 2.916 2.916 0 01-1.066 1.232 2.9 2.9 0 01-1.582.434 2.71 2.71 0 01-1.302-.312 2.161 2.161 0 01-.882-.854V86.5h-1.75v-9.366h1.722v1.036a2.148 2.148 0 01.889-.889 2.731 2.731 0 011.323-.315zm-.462 5.768a1.569 1.569 0 001.288-.567 2.475 2.475 0 00.462-1.6 2.616 2.616 0 00-.462-1.652 1.546 1.546 0 00-1.288-.588 1.556 1.556 0 00-1.3.574 2.583 2.583 0 00-.455 1.638 2.558 2.558 0 00.455 1.624 1.556 1.556 0 001.298.567zm8.876-5.768a2.837 2.837 0 011.575.448 2.971 2.971 0 011.076 1.262 4.378 4.378 0 01.381 1.884 4.24 4.24 0 01-.385 1.862 2.916 2.916 0 01-1.067 1.232 2.9 2.9 0 01-1.582.434 2.71 2.71 0 01-1.3-.308 2.161 2.161 0 01-.882-.854v3.57h-1.75v-9.366h1.722v1.036a2.148 2.148 0 01.889-.889 2.731 2.731 0 011.321-.315zm-.468 5.764a1.569 1.569 0 001.288-.567 2.475 2.475 0 00.462-1.6 2.616 2.616 0 00-.462-1.652 1.546 1.546 0 00-1.288-.591 1.556 1.556 0 00-1.3.574 2.583 2.583 0 00-.455 1.638 2.558 2.558 0 00.455 1.624 1.556 1.556 0 001.3.574zm8.89-8.624h1.81v8.386h4.606v1.484h-6.412zm10.56 2.856a2.916 2.916 0 012.142.7 2.937 2.937 0 01.7 2.156v4.158h-1.666v-1.05a1.827 1.827 0 01-.749.85 2.247 2.247 0 01-1.183.312 2.747 2.747 0 01-1.246-.28 2.217 2.217 0 01-.882-.77 1.946 1.946 0 01-.322-1.092 1.73 1.73 0 01.385-1.19 2.314 2.314 0 011.253-.63 11.411 11.411 0 012.394-.2h.35v-.322a1.407 1.407 0 00-.3-1.008 1.36 1.36 0 00-1-.308 3.766 3.766 0 00-1.143.188 5.77 5.77 0 00-1.169.525l-.49-1.2a5.436 5.436 0 011.386-.6 5.48 5.48 0 011.54-.239zm-.406 5.866a1.5 1.5 0 001.141-.469 1.7 1.7 0 00.441-1.211v-.294h-.252a9.658 9.658 0 00-1.456.084 1.414 1.414 0 00-.742.294.749.749 0 00-.224.574.96.96 0 00.308.735 1.1 1.1 0 00.784.287zm9-5.866a2.288 2.288 0 011.834.7 3.174 3.174 0 01.6 2.114v4.2h-1.75v-4.1a1.815 1.815 0 00-.3-1.162 1.157 1.157 0 00-.945-.364 1.6 1.6 0 00-1.211.476 1.767 1.767 0 00-.452 1.272v3.878h-1.75v-6.846h1.708v1.022a2.368 2.368 0 01.938-.882 2.823 2.823 0 011.33-.308zm10.824-2.856v9.87h-1.736v-1.106a2.192 2.192 0 01-.889.9 2.683 2.683 0 01-1.323.318 2.837 2.837 0 01-1.575-.448 2.971 2.971 0 01-1.078-1.264 4.378 4.378 0 01-.385-1.883 4.24 4.24 0 01.385-1.862 2.916 2.916 0 011.071-1.235 2.9 2.9 0 011.582-.434 2.74 2.74 0 011.316.308 2.137 2.137 0 01.882.868V74.11zm-3.486 8.624a1.556 1.556 0 001.3-.574 2.583 2.583 0 00.455-1.638 2.552 2.552 0 00-.455-1.631 1.549 1.549 0 00-1.282-.567 1.593 1.593 0 00-1.3.56 2.47 2.47 0 00-.462 1.61 2.616 2.616 0 00.462 1.652 1.546 1.546 0 001.282.588zm5.292-5.6h1.75v6.846h-1.75zm1.834-3.178v1.724h-1.932v-1.722zm5.7 3.01a2.288 2.288 0 011.834.7 3.174 3.174 0 01.6 2.114v4.2h-1.75v-4.1a1.815 1.815 0 00-.3-1.162 1.157 1.157 0 00-.945-.364 1.6 1.6 0 00-1.211.476 1.767 1.767 0 00-.455 1.274v3.876h-1.751v-6.846h1.708v1.022a2.368 2.368 0 01.938-.882 2.823 2.823 0 011.33-.308zm10.878.168v6.216a3.164 3.164 0 01-.886 2.436 3.729 3.729 0 01-2.625.826 6.364 6.364 0 01-1.727-.232 4.865 4.865 0 01-1.442-.651l.494-1.231a5.023 5.023 0 002.632.77 1.6 1.6 0 001.816-1.788v-.9a2.138 2.138 0 01-.9.889 2.8 2.8 0 01-1.34.311 2.967 2.967 0 01-1.589-.427 2.934 2.934 0 01-1.085-1.2 3.867 3.867 0 01-.392-1.773 3.97 3.97 0 01.385-1.785 2.863 2.863 0 011.085-1.2 3 3 0 011.6-.427 2.8 2.8 0 011.344.315 2.138 2.138 0 01.9.889v-1.038zm-3.516 5.292a1.633 1.633 0 001.309-.546 2.224 2.224 0 00.469-1.5 2.247 2.247 0 00-.469-1.512 1.633 1.633 0 00-1.309-.546 1.638 1.638 0 00-1.3.546 2.225 2.225 0 00-.478 1.512 2.208 2.208 0 00.476 1.491 1.628 1.628 0 001.302.555z" fill="#03c"/></svg>