<svg xmlns="http://www.w3.org/2000/svg" xmlns:xlink="http://www.w3.org/1999/xlink" width="423.037" height="446.16"><defs><linearGradient id="a" x1=".161" y1=".167" x2=".853" y2=".794" gradientUnits="objectBoundingBox"><stop offset="0" stop-color="#f2b946"/><stop offset="1" stop-color="#ee5050"/></linearGradient><linearGradient id="b" x1="-.985" y1="1.458" x2=".909" y2=".325" xlink:href="#a"/></defs><g transform="translate(953.503 -57)"><path data-name="Path 946" d="M-819.283 57l4.691 8.578 8.578 4.691-8.578 4.691-4.691 8.578-4.691-8.578-8.578-4.691 8.578-4.691z" fill="rgba(255,255,255,0.47)"/><path data-name="Path 947" d="M-623.633 289.387l3.518 6.433 6.433 3.518-6.433 3.518-3.518 6.433-3.519-6.433-6.433-3.518 6.433-3.518z" fill="rgba(255,255,255,0.47)"/><path data-name="Path 948" d="M-613.681 257.622l1.587 2.9 2.9 1.587-2.9 1.587-1.587 2.9-1.587-2.9-2.9-1.587 2.9-1.587z" fill="rgba(255,255,255,0.47)"/><path data-name="Path 949" d="M-852.789 60.226l1.587 2.9 2.9 1.587-2.9 1.587-1.587 2.9-1.587-2.9-2.9-1.587 2.9-1.587z" fill="rgba(255,255,255,0.47)"/><path data-name="Path 950" d="M-932.37 329.872a10.372 10.372 0 006.056-9.674c-.051-5.729-4.447-10.337-9.819-10.292s-9.685 4.725-9.634 10.454a10.353 10.353 0 006.323 9.6c-14.938 2.454-14.049 18.71-14.049 18.71l35.4-.3s.59-16.45-14.277-18.498z" fill="rgba(255,255,255,0.47)"/><path data-name="Path 951" d="M-592.867 437.052a5.509 5.509 0 00-10.866.323 5.509 5.509 0 00-10.868-.228 7.437 7.437 0 001.335 5.366 22.142 22.142 0 003.885 4.106c1.978 1.76 3.806 3.415 5.784 5.175 1.962-1.777 3.631-3.448 5.593-5.225a22.036 22.036 0 003.849-4.141 7.436 7.436 0 001.288-5.376z" fill="rgba(255,255,255,0.47)"/><path data-name="Path 952" d="M-569.815 226.264l3.792-.752 5.99-13.176-1.5-7.571s5.791-1.523 7.067 8.527 1.522 7.378 1.522 7.378 12.457-2.42 13.706-1.544c.908.636 3.7 12.933 5.16 19.613a7.4 7.4 0 01-3.694 8.334 5.574 5.574 0 01-1.3.446c-3.1.616-19.468 1.237-19.468 1.237l-6.551 1.3z" fill="rgba(255,255,255,0.47)"/><path data-name="Path 953" d="M-581.085 226.339l7.482 25.475 6.5-1.288-5.05-25.412z" fill="rgba(255,255,255,0.47)"/><path data-name="Path 954" d="M-531.603 219.291c-2.588-27.477-8.956-52.63-22.483-73.469s-39.619-31.82-63.713-37.88-44.241-.343-61.718 17.316c-18.3 18.488-23.864 46.938-28.961 72.446s-15.047 58.565-35.764 74.3c-23.609 17.926-60.7 8.236-90.006 3.759s-61.753-8.789-86.458 7.6c-20.264 13.439-30.509 38.991-29.277 63.275s8.728 46.735 20.949 67.755c16.839 28.963 66.47 64.172 99.892 53.48l144.125-8.12c27.168-12.468 20.956 6.768 65.342-19.049 25.839-15.029 65.681-69.46 77.391-106.9 10.269-32.862 13.904-80.248 10.681-114.513z" fill="#fff" opacity=".1"/><path data-name="Path 955" d="M-818.639 67.934l-9.172-3.809c-36.056-12.219-79.949 8.55-93.367 44.177s5.872 80.19 41.031 94.791 80.341-3.186 96.11-37.837-.498-80.404-34.602-97.322z" fill="#fff" opacity=".1"/><path data-name="Path 964" d="M108.032 407.613A36.8 36.8 0 0163.7 380.341a36.8 36.8 0 0127.274-44.331 36.8 36.8 0 0144.326 27.273 36.8 36.8 0 01-27.268 44.33z" transform="translate(-1001.503 33.114)" fill="url(#a)"/><path data-name="Path 966" d="M-905.733 390.672a16.08 16.08 0 1019.368 11.916 16.078 16.078 0 00-19.368-11.916m6.145 25.8a10.438 10.438 0 117.734-12.573 10.437 10.437 0 01-7.734 12.573" fill="#fff"/><path data-name="Path 967" d="M-885.968 385.306a3.758 3.758 0 11-4.527-2.785 3.759 3.759 0 014.527 2.785" fill="#fff"/><path data-name="Path 970" d="M-673.233 503.16l-137.887-.081a30.036 30.036 0 01-30.018-30.042l.068-345.685a30.037 30.037 0 0130.053-30.031l137.888.082a30.036 30.036 0 0130.018 30.042l-.068 345.686a30.034 30.034 0 01-30.054 30.029z" fill="#f8faff"/><path data-name="Path 971" d="M-673.276 109.629l-26.734-.015a6.641 6.641 0 00-6.493 6.782v4.85a6.641 6.641 0 01-6.492 6.782l-52.108-.031a6.647 6.647 0 01-6.49-6.79v-4.849a6.647 6.647 0 00-6.491-6.79l-9.4-.006-23.4-.013a21.035 21.035 0 00-21.048 21.031l-.071 337.414a21.036 21.036 0 0021.023 21.041l137.612.08a21.035 21.035 0 0021.047-21.031l.066-337.415a21.035 21.035 0 00-21.021-21.04z" fill="#fff"/><path data-name="Path 972" d="M-671.263 137.041c0 .09-3.475.192-7.764.228s-7.766-.009-7.767-.1 3.475-.192 7.765-.228 7.766.009 7.766.1z" fill="#263238"/><path data-name="Path 973" d="M-671.23 141.014c0 .09-3.476.192-7.764.228s-7.766-.01-7.767-.1 3.475-.193 7.764-.228 7.766.01 7.767.1z" fill="#263238"/><path data-name="Path 974" d="M-671.197 144.988c0 .091-3.476.193-7.764.228s-7.767-.009-7.767-.1 3.475-.193 7.764-.228 7.761.01 7.767.1z" fill="#263238"/><path data-name="Path 975" d="M-817.484 148.864a3.188 3.188 0 01.407-.027l1.132-.037 4.18-.1-.116.118-.049-3.031c.006-.563-.048-1.094.006-1.745a1.607 1.607 0 011.4-1.288c.673-.013 1.266-.044 2-.01a1.623 1.623 0 011.371 1.614l.05 4.42-.194-.19 5.272-.054-.2.2-.059-6.569q-.006-.841-.014-1.673a1.7 1.7 0 00-.741-1.246l-2.3-2.272q-1.133-1.116-2.223-2.194l-1.078-1.064c-.37-.357-.661-.726-1.09-.814a1.42 1.42 0 00-1.21.231c-.319.27-.659.652-.981.965l-1.892 1.908c-1.19 1.236-2.429 2.365-3.33 3.433a3.727 3.727 0 00-.265 1.967v1.858l-.019 2.993-.021 1.913a6.789 6.789 0 01-.026.69 5.019 5.019 0 01-.036-.634l-.053-1.884q-.028-1.293-.068-3.016l-.035-1.9-.016-1.036a2.193 2.193 0 01.291-1.1c.975-1.195 2.139-2.253 3.338-3.525l1.877-1.923c.338-.332.615-.662 1.018-1.008a1.791 1.791 0 011.528-.3 2.847 2.847 0 011.266.9l1.082 1.06 2.231 2.187 2.309 2.267a4.394 4.394 0 01.589.638 1.727 1.727 0 01.276.889l.015 1.681.05 6.57v.2h-.2l-5.273.034h-.193v-.192l-.023-4.42a1.272 1.272 0 00-1.065-1.28c-.607-.032-1.322-.011-1.912-.006a1.294 1.294 0 00-1.137 1.025c-.051.53-.012 1.148-.023 1.685v3.149h-.116l-4.249-.03-1.106-.019a2.076 2.076 0 01-.375-.008z" fill="#263238"/><path data-name="Path 976" d="M-726.523 412.52a7.662 7.662 0 01-1.445.1l-3.94.083c-3.327.047-7.923.076-13 .076s-9.674-.029-13-.076l-3.94-.083a7.662 7.662 0 01-1.445-.1 7.726 7.726 0 011.445-.1l3.94-.083c3.326-.047 7.923-.076 13-.076s9.672.029 13 .076l3.94.083a7.726 7.726 0 011.445.1z" fill="#455a64"/><path data-name="Path 977" d="M-668.732 421.566c0 .144-21.17.26-47.278.26s-47.282-.116-47.282-.26 21.165-.26 47.282-.26 47.278.116 47.278.26z" fill="#455a64"/><path data-name="Path 978" d="M-698.282 430.076c0 .143-14.554.26-32.5.26s-32.507-.117-32.507-.26 14.551-.261 32.507-.261 32.5.117 32.5.261z" fill="#455a64"/><path data-name="Path 979" d="M-666.863 446.64l-2.938-2.947-2.8 2.79.013-8.435 5.735.009zm-2.937-3.314l.092.092 2.586 2.6.012-7.7-5.216-.008-.012 7.549z" fill="#263238"/><path data-name="Path 980" d="M-745.095 445.543l-1.036-.462a2.84 2.84 0 111.514-2.5 2.871 2.871 0 01-.717 1.92zm-2.423-5.616a2.683 2.683 0 00.043 5.365 2.767 2.767 0 001.291-.407l.043-.025.765.342-.174-.752.035-.038a2.678 2.678 0 00-2-4.485z" fill="#263238"/><path data-name="Path 981" d="M-738.429 445.098l-1.189-2.9-2.228-2.031 5.4-.043zm-2.912-4.737l1.9 1.742 1.012 2.47 1.7-4.249z" fill="#263238"/><path data-name="Rectangle 62" fill="#263238" d="M-739.496 442.041l2.947-1.918.107.165-2.947 1.918z"/><path data-name="Path 982" d="M-753.603 440.773a1.672 1.672 0 00-3.3.11 1.672 1.672 0 00-3.3-.057 2.256 2.256 0 00.411 1.627 6.713 6.713 0 001.183 1.241c.6.532 1.159 1.032 1.761 1.564.593-.541 1.1-1.05 1.691-1.592a6.649 6.649 0 001.164-1.26 2.262 2.262 0 00.39-1.633z" fill="#9a00ff"/><path data-name="Path 983" d="M-660.841 454.102s-.012-.324-.018-.941-.01-1.539-.018-2.736l-.042-10.558-.094-39.335.172.172-159.917.089h-.01l.261-.261c0 18.617-.006 36.676-.009 53.57l-.252-.252 114.434.117 33.4.07 8.965.033 2.323.016c.524.005.8.016.8.016s-.254.01-.768.016l-2.294.016-8.91.032-33.348.071-114.607.117h-.252v-.252c0-16.894-.005-34.953-.008-53.57v-.26h.27l159.917.089h.172v.171l-.094 39.438-.042 10.519-.018 2.706c-.002.606-.013.907-.013.907z" fill="#263238"/><path data-name="Rectangle 63" fill="#ebebeb" d="M-814.318 444.899l.212-35.416 44.3.266-.212 35.416z"/><path data-name="Path 984" d="M-769.818 409.735a1.737 1.737 0 01-.222.012l-.628.01-2.418.014-9.083.01-31.949-.065.234-.232-.174 35.413c.055.062-.485-.493-.251-.259h1.523l1.527.009 3.032.018 5.969.036 11.493.074 20.747.15-.218.215c.107-10.634.2-19.457.258-25.651.042-3.08.074-5.505.1-7.19l.035-1.9c.011-.433.028-.668.028-.668s.015.2.02.622l.014 1.864c0 1.673.009 4.083.016 7.142l-.035 25.789v.216h-.218l-20.746-.086-11.494-.056-5.969-.032-3.032-.017-1.527-.008h-1.523c.228.234-.325-.317-.267-.265l.229-35.412v-.234h.233l32.1.3 9.03.113 2.372.041.6.017a.861.861 0 01.194.01z" fill="#263238"/><path data-name="Rectangle 64" fill="#e0e0e0" d="M-812.778 442.678l.186-30.957 41.187.247-.186 30.957z"/><path data-name="Path 985" d="M-812.778 442.678l14.494-19.164 8.843 12.09 6.081-6.4 11.768 13.71z" fill="#f5f5f5"/><path data-name="Path 986" d="M-785.576 421.232a3.243 3.243 0 11-3.225-3.261 3.245 3.245 0 013.225 3.261z" fill="#f5f5f5"/><path data-name="Path 987" d="M-739.416 179.986a1.636 1.636 0 01-.473.053l-1.356.049-4.989.082c-4.213.048-10.033.077-16.461.077s-12.25-.029-16.463-.077l-4.988-.082-1.357-.049a1.636 1.636 0 01-.473-.053 1.666 1.666 0 01.473-.052l1.357-.049 4.988-.083c4.213-.047 10.034-.076 16.463-.076s12.248.029 16.461.076l4.989.083 1.356.049a1.666 1.666 0 01.473.052z" fill="#263238"/><path data-name="Path 988" d="M-673.971 375.767l-4.365-4.379-4.158 4.146.02-12.535 8.523.013zm-4.364-4.924l.136.135 3.844 3.857.018-11.438-7.752-.012-.014 11.219z" fill="#263238"/><path data-name="Path 989" d="M-784.829 374.448l-2.041-.91a5.59 5.59 0 112.981-4.91 5.649 5.649 0 01-1.411 3.78zm-4.774-11.054a5.28 5.28 0 10.085 10.56 5.442 5.442 0 002.543-.8l.084-.047 1.5.671-.34-1.478.068-.075a5.274 5.274 0 00-3.944-8.829z" fill="#263238"/><path data-name="Path 990" d="M-771.709 373.573l-2.339-5.709-4.386-4 10.638-.085zm-5.732-9.326l3.736 3.429 1.992 4.863 3.342-8.365z" fill="#263238"/><path data-name="Rectangle 65" fill="#263238" d="M-773.809 367.555l5.799-3.771.212.326-5.799 3.771z"/><path data-name="Path 991" d="M-801.57 365.059a3.291 3.291 0 00-6.489.217 3.29 3.29 0 00-6.491-.112 4.44 4.44 0 00.809 3.2 13.142 13.142 0 002.329 2.444c1.185 1.047 2.28 2.032 3.465 3.079 1.168-1.066 2.162-2.067 3.33-3.133a13.191 13.191 0 002.29-2.481 4.441 4.441 0 00.757-3.214z" fill="#9a00ff"/><circle data-name="Ellipse 11" cx="7.216" cy="7.216" r="7.216" transform="translate(-809.756 172.77)" fill="#ebebeb"/><path data-name="Path 992" d="M-676.696 334.369c0 .144-30.26.26-67.579.26s-67.585-.116-67.585-.26 30.253-.261 67.585-.261 67.579.117 67.579.261z" fill="#455a64"/><path data-name="Path 993" d="M-676.696 323.114c0 .144-30.26.261-67.579.261s-67.585-.117-67.585-.261 30.253-.26 67.585-.26 67.579.115 67.579.26z" fill="#455a64"/><path data-name="Path 994" d="M-738.289 345.774c0 .144-16.471.261-36.784.261s-36.787-.117-36.787-.261 16.467-.26 36.787-.26 36.784.117 36.784.26z" fill="#455a64"/><path data-name="Path 995" d="M-747.368 468.404a2.872 2.872 0 11-2.859-2.927 2.892 2.892 0 012.859 2.927z" fill="#263238"/><path data-name="Path 996" d="M-738.47 468.445a2.872 2.872 0 11-2.859-2.927 2.891 2.891 0 012.859 2.927z" fill="#263238"/><path data-name="Path 997" d="M-729.572 468.486a2.872 2.872 0 11-2.859-2.927 2.89 2.89 0 012.859 2.927z" fill="#263238"/><path data-name="Rectangle 66" fill="#e0e0e0" d="M-819.809 194.268h159.927v97.804h-159.927z"/><path data-name="Path 998" d="M-805.046 292.089l45.828-61.338 28.415 38.363 19.256-20.517 37.766 43.457z" fill="#f5f5f5"/><path data-name="Path 999" d="M-718.765 223.227a10.336 10.336 0 11-10.338-10.332 10.335 10.335 0 0110.338 10.332z" fill="#f5f5f5"/><path data-name="Path 1000" d="M-660.313 382.967c0-2.092-.1-90.445-.236-221.24l.236.237-159.908.024h-.018l.26-.261-.049 221.24-.211-.212 159.926.212-159.926.212h-.212v-.212l-.049-221.24v-.26h.279l159.908.024h.236v.236l-.117 159.773-.063 45.352-.028 12-.014 3.079a49.921 49.921 0 01-.014 1.036z" fill="#263238"/><path data-name="Path 1001" d="M-735.46 410.414l3.538-11.887a129.451 129.451 0 012.54-9.089c.992-3.119 3.536-6.4 5.856-8.756 3.612-3.673 5.329-3.7 7.757-5.647.221-.142.467-.344.676-.457a3.828 3.828 0 001.18-1.021c2.092-2.263.083-5.765-4.165-5.432-3.2.251-8.415 1.166-16.9 9.916-.106.133-.217.244-.321.38-4.452 5.786-8.632-10.732-9.386-16.88a6.443 6.443 0 00-8.709-5l-20.661 9.664a9.644 9.644 0 00-6.031.2 6.141 6.141 0 00-3.936 7.289l8.38 33.451-24.613 81.893h53.052z" fill="#fcaa80"/><path data-name="Path 1002" d="M306.8 302.084l-16.4 32.133-8.2-2.278-41.215 33.527a8.349 8.349 0 01-11.6-1.031L213.694 346.2s31.641-13.631 37.493-24.913-.91-13.842-.91-13.842l14.892-16.923z" transform="translate(-1001.503 33.114)" fill="url(#a)"/><path data-name="Path 1003" d="M285.527 236.443s-24-5.309-57.783-37.792-49.65-75.617-53.785-75.407-22.188-8.171-56.524 66.52-20.811 92.036-13.979 91.9 53.227-13.069 82.2-9.775 66.225 18.4 66.225 18.4z" transform="translate(-1001.503 33.114)" fill="url(#a)"/><path data-name="Path 1004" d="M336.52 277.155l-8.189 15.57-3.669 6.974a20.32 20.32 0 01-26.488 9l-51.449-17.926 29.963-68.4 51.4 27.393a20.322 20.322 0 018.432 27.389z" transform="translate(-1001.503 33.114)" fill="url(#a)"/><path data-name="Path 1005" d="M-664.983 310.269l-8.189 15.57-3.669 6.974a20.32 20.32 0 01-26.488 9l-51.449-17.926 29.963-68.4 51.4 27.393a20.322 20.322 0 018.432 27.389z" opacity=".2"/><path data-name="Path 1006" d="M120.209 191.124c-18.273 40.46-25.88 76.515-16.99 80.531s30.911-25.531 49.185-65.991 25.88-76.515 16.99-80.53-30.91 25.529-49.185 65.99z" transform="translate(-1001.503 33.114)" fill="url(#a)"/><path data-name="Path 1007" d="M-881.294 224.238c-18.273 40.46-25.88 76.515-16.99 80.531s30.911-25.531 49.185-65.991 25.88-76.515 16.99-80.53-30.91 25.529-49.185 65.99z" opacity=".2"/><path data-name="Path 1008" d="M340.936 299.652l-13.945-4.38 8.629-16.408 10.458 6.5z" transform="translate(-1001.503 33.114)" fill="url(#a)"/><path data-name="Path 1009" d="M-665.883 311.979l-8.629 16.408 2.865.9 7.016-16.531z" opacity=".1"/><path data-name="Path 1010" d="M326.012 282.65c-.2.451-7.165-2.254-15.543-6.042s-15.013-7.225-14.808-7.675 7.161 2.255 15.544 6.043 15.009 7.224 14.807 7.674z" transform="translate(-1001.503 33.114)" fill="url(#a)"/><path data-name="Path 1011" d="M330.3 272.878c-.22.445-6.517-2.21-14.067-5.928s-13.495-7.093-13.275-7.538 6.513 2.212 14.066 5.931 13.494 7.091 13.276 7.535z" transform="translate(-1001.503 33.114)" fill="url(#a)"/><path data-name="Path 1012" d="M320.6 292.9c-.074.238-1.73-.145-4.373-.961-1.32-.408-2.884-.924-4.615-1.523-1.719-.623-3.5-1.526-5.417-2.392-7.629-3.542-13.454-7.009-13.263-7.42.225-.485 6.452 2.285 14.01 5.792 1.9.859 3.655 1.8 5.313 2.5 1.664.673 3.157 1.3 4.4 1.854 2.5 1.106 4.019 1.913 3.945 2.15z" transform="translate(-1001.503 33.114)" fill="url(#a)"/><path data-name="Path 1013" d="M157.465 182.126s-20.863-12.937-32.278 15.25 10.536 32.824 10.536 32.824a187.8 187.8 0 0021.742-48.074z" transform="translate(-1001.503 33.114)" fill="url(#a)"/><path data-name="Path 1014" d="M179.653 148.533c.122.021-.174 1.935-.817 5.385-.66 3.445-1.593 8.445-2.931 14.583l-2.88 9.864q-.784 2.661-1.621 5.494l-.851 2.872c-.312.963-.718 1.908-1.081 2.881-1.5 3.878-3.079 7.946-4.713 12.161q-.615 1.583-1.242 3.19c-.406 1.077-.98 2.09-1.467 3.15l-3.1 6.394q-1.57 3.24-3.111 6.392c-.532 1.039-.976 2.117-1.57 3.1l-1.74 2.949-6.648 11.226c-.542.887-1.032 1.79-1.6 2.63q-.877 1.242-1.734 2.45l-3.322 4.679c-2.146 3-4.148 5.8-5.981 8.37-3.989 4.834-7.335 8.647-9.633 11.294s-3.636 4.054-3.731 3.975a31.8 31.8 0 013.193-4.419l9.191-11.653 5.757-8.436q1.557-2.27 3.218-4.686l1.685-2.447c.549-.841 1.028-1.746 1.555-2.633L151 226.1l1.714-2.936c.587-.98 1.023-2.052 1.55-3.086q1.518-3.134 3.079-6.351l3.087-6.345c.487-1.051 1.061-2.057 1.467-3.124s.835-2.116 1.248-3.161c1.656-4.174 3.255-8.2 4.778-12.042.371-.963.786-1.9 1.108-2.848l.883-2.842q.873-2.8 1.7-5.434c1.1-3.5 2.131-6.761 3.075-9.749l3.471-14.4a32.211 32.211 0 011.493-5.249z" transform="translate(-1001.503 33.114)" fill="url(#b)"/><path data-name="Path 1015" d="M-782.81 377.075c1.9 3.455 3.845 6.964 6.662 9.725s6.684 4.717 10.608 4.322 7.643-3.655 7.685-7.6c1.884 1.416 4.771.649 6.331-1.117s2.067-4.219 2.254-6.567c2.558 1.509 6.116.312 7.823-2.118a10.115 10.115 0 00.986-8.557 29.963 29.963 0 00-4.107-7.866c1.969.159 4.056.3 5.818-.6s2.953-3.224 1.924-4.912a4.894 4.894 0 00-2.868-1.829c-3.087-.966-5.253-1.74-8.466-1.367-.747.008 1.286 8.476-18.884 20.059-11.907 6.842-15.766 8.427-15.766 8.427z" opacity=".1"/><path data-name="Path 1016" d="M-737.39 389.314c-.013.093-1.356-.165-3.532-.106a19.968 19.968 0 00-14.824 7.107c-1.408 1.66-2.048 2.868-2.129 2.82a3.088 3.088 0 01.395-.875 15.972 15.972 0 011.449-2.178 18.894 18.894 0 0115.106-7.242 16.1 16.1 0 012.606.233 3.078 3.078 0 01.929.241z" fill="#eb996e"/><path data-name="Path 1017" d="M-781.495 371.704c3.249 3.121 5.471 6.567 8.879 9.71 1.548 1.428 3.954 4.134 6.03 4.494s3.4.084 4.227-1.856c.665-1.571-.53-3.718-1.355-5.013-2.171-3.4-4.247-6.068-5.873-8.716-.762-1.24.224-1.5.584-.922 1.564 1.621 3.9 3.026 5.3 4.791 1.918 2.417 2.266 5.617 7.285 4.605a4.523 4.523 0 001.863-.774c1.889-1.446 1.968-3.96 1.173-5.974a16.352 16.352 0 00-2.794-4.227c2.136 2.412 4.468 4.952 7.865 5.226a4.679 4.679 0 004.756-2.574c1.005-2.282-.436-4.488-1.882-6.272a65.327 65.327 0 00-8.529-8.713 6.489 6.489 0 00-4.146-1.537c-1.756-.012-3.955.319-5.041 1.847a6.819 6.819 0 00-1.364 5.227s-4.406-2.234-7.946.1a11.228 11.228 0 00-4.416 6.352z" fill="#fcaa80"/><path data-name="Path 1018" d="M-758.05 352.984a5.278 5.278 0 01-.623-5.96c.749-1.468 1.695-2.895 2.653-3.219 4.191-1.414 22.5 1.754 22.335 5.819-.171 4.173-1.5 6.009-11.442 4.574-1.748-.252-4.491-.6-4.491-.6l-2.4 3.6z" fill="#fcaa80"/><path data-name="Path 1019" d="M-754.771 370.001a24.039 24.039 0 00-10.09-9.148 5.852 5.852 0 011.938.683 17.391 17.391 0 017.283 6.6 5.851 5.851 0 01.869 1.865z" fill="#eb996e"/><path data-name="Path 1020" d="M-751.689 357.514c-.092.085-1.3-.9-2.949-1.91a20.73 20.73 0 00-2.149-1.185c-.566-.266-.941-.339-.94-.417s.431-.12 1.067.072a9.845 9.845 0 012.3 1.087c1.686 1.032 2.793 2.242 2.671 2.353z" fill="#eb996e"/><path data-name="Path 1021" d="M-748.615 353.735a7.912 7.912 0 01-3.527-.4 6.446 6.446 0 01-2.257-1.183c-.5-.428-.712-.785-.663-.828a14.762 14.762 0 003.074 1.513c1.816.53 3.4.726 3.373.898z" fill="#eb996e"/><path data-name="Path 1022" d="M-766.412 375.032a12.753 12.753 0 01-1.669-2.17 19.69 19.69 0 00-4.275-4.858 8.616 8.616 0 00-6.054-1.6 11.009 11.009 0 00-2.55.811c-.018-.023.174-.209.584-.462a5.7 5.7 0 011.907-.712 8.507 8.507 0 016.417 1.544 17.4 17.4 0 014.278 5.078 16.267 16.267 0 011.362 2.369z" fill="#eb996e"/><path data-name="Path 1023" d="M-752.403 415.532a55.031 55.031 0 01-7.485 1.076 55.071 55.071 0 01-7.541.558 55 55 0 017.485-1.076 55.07 55.07 0 017.541-.558z" fill="#eb996e"/><path data-name="Path 1024" d="M-594.871 82.958l1.129 2.064 2.064 1.129-2.064 1.129-1.129 2.064-1.132-2.064-2.064-1.129 2.064-1.129z" fill="rgba(255,255,255,0.47)"/><path data-name="Path 1025" d="M-571.267 134.128l1.129 2.064 2.064 1.129-2.064 1.129-1.129 2.064-1.129-2.064-2.064-1.129 2.064-1.129z" fill="rgba(255,255,255,0.47)"/><path data-name="Path 1026" d="M-949.603 270.647l1.129 2.064 2.064 1.129-2.064 1.129-1.129 2.064-1.129-2.064-2.064-1.129 2.064-1.129z" fill="rgba(255,255,255,0.47)"/><path data-name="Path 1027" d="M-625.841 95.676l2.607 4.766 4.766 2.607-4.766 2.607-2.607 4.767-2.607-4.767-4.766-2.607 4.766-2.607z" fill="rgba(255,255,255,0.47)"/><path data-name="Path 1028" d="M-928.442 238.214l2.6 4.756 4.756 2.6-4.756 2.6-2.6 4.756-2.6-4.756-4.756-2.6 4.756-2.6z" fill="rgba(255,255,255,0.47)"/><path data-name="Path 1029" d="M-564.845 351.679l2.6 4.756 4.756 2.6-4.756 2.6-2.6 4.756-2.6-4.756-4.756-2.6 4.756-2.6z" fill="rgba(255,255,255,0.47)"/></g></svg>